<svg xmlns="http://www.w3.org/2000/svg" viewBox="0 0 942.81 220.63"><defs><style>.cls-1{fill:#444445;}</style></defs><title>Asset 5</title><g id="Layer_2" data-name="Layer 2"><g id="Layer_1-2" data-name="Layer 1"><path class="cls-1" d="M176.3,68.08c0,25.3-16.59,41.89-41.72,41.89-26.15,0-42.39-16.59-42.39-42.91,0-24.79,16.58-40.86,42.05-40.86C160.23,26.2,176.3,42.27,176.3,68.08Zm-69.07-.51c0,18.8,10.77,31.28,27,31.28,16.41,0,27-12,27-30.6,0-8.89-1.71-14.87-5.64-20.34-5.13-7-12.31-10.6-21.2-10.6C118.17,37.31,107.23,49.62,107.23,67.57Z"/><path class="cls-1" d="M213.93,46.28c1.66-11.8,11.44-19.83,24.53-19.83a28.09,28.09,0,0,1,6.47.85V40.05a11,11,0,0,0-7.75-2.52,21.86,21.86,0,0,0-15.84,6.57c-5.05,5-7.41,12.46-7.41,22.57V97.5h17v11h-46v-11h15v-58h-15v-11h29Z"/><path class="cls-1" d="M282.93,46.28c1.71-11.8,11.81-19.83,25.33-19.83a30,30,0,0,1,6.67.85V40.05a11,11,0,0,0-7.75-2.52,21.86,21.86,0,0,0-15.84,6.57c-5,5-7.41,12.46-7.41,22.57V97.5h17v11h-47v-11h15v-58h-15v-11h29Z"/><path class="cls-1" d="M400.76,83.5a29.13,29.13,0,0,1-4.7,12.17c-6.78,9.91-17.91,15-33.56,15-16.87,0-27.65-4.87-35.48-16-5-7.31-7.48-15.48-7.48-25.57,0-27.3,15.83-43.65,42.09-43.65,20.52,0,33.56,9,38.26,26.09,1.74,6.43,2.09,9.74,2.09,20H334.5c.52,16.87,11.65,27.82,28.69,27.82,12.87,0,22.09-5.91,24.35-15.82Zm-14.19-23c-.85-14.7-10.08-23.59-24.79-23.59-14.53,0-24.27,8.71-26.32,23.59Z"/><path class="cls-1" d="M436.93,97.5h14v11h-43v-11h14v-86h-14V1.5h29Z"/><path class="cls-1" d="M461.45,51.5c2.08-17.1,13.14-25,35.43-25q19.19,0,27.48,8.2c5,5,6.57,10.43,6.57,22.57V97.5h15v11h-28V91.33c-4.34,13-13.57,18.64-29.47,18.64-18.46,0-29.23-8.89-29.23-24.28,0-10.43,5-18,14.36-22.22,5.81-2.57,14.7-3.76,28.55-3.76,2.05,0,14.79.34,14.79.34V57c.17-8.55-1-12-4.67-15-3.28-2.9-8.46-4.27-15.2-4.27-12.79,0-19.71,4.79-20.57,13.85ZM503.17,70c-12.14,0-18.47,1.2-22.91,4.11a13,13,0,0,0-6,11.11c0,8.37,6.49,13.67,16.75,13.67,8.89,0,16.24-3.07,20.68-8.89,3.25-4.27,4.62-8.71,5.64-19.66C512.4,70,509.15,70,503.17,70Z"/><path class="cls-1" d="M572.93,86c0,5.75.33,7.95,2,9.81a8.38,8.38,0,0,0,6.67,3.05,7.83,7.83,0,0,0,7.83-5.42c.67-2,1-4.4,1.17-10h10.83c0,9.64-.67,13.54-3.17,17.6-3.83,5.92-10,8.8-18.83,8.8-5.83,0-10.5-1.53-14-4.4-4.83-4.06-6.5-9.14-6.5-19.63V39.5h-16v-11h16V5.13l14-5.13V28.5h27v11h-27Z"/><path class="cls-1" d="M639.93,97.5h13v11h-41v-11h14v-58h-14v-11h28Z"/><path class="cls-1" d="M746.43,68.08c0,25.3-16.58,41.89-41.71,41.89-26.15,0-42.39-16.59-42.39-42.91,0-24.79,16.58-40.86,42-40.86C730.37,26.2,746.43,42.27,746.43,68.08Zm-69.06-.51c0,18.8,10.77,31.28,27,31.28,16.41,0,27-12,27-30.6,0-8.89-1.71-14.87-5.64-20.34-5.13-7-12.31-10.6-21.2-10.6C688.31,37.31,677.37,49.62,677.37,67.57Z"/><path class="cls-1" d="M783.93,44C787,32.77,797,26.45,811.42,26.45c18.33,0,28.51,8.88,28.51,24.93V97.5h14v11h-42v-11h13V56.35a18.8,18.8,0,0,0-18.7-18.86c-13.69,0-22.3,9.77-22.3,25.13V97.5h14v11h-43v-11h15v-58h-15v-11h29Z"/><path class="cls-1" d="M746.43,177.94c0,25.3-16.58,41.88-41.71,41.88-26.15,0-42.39-16.58-42.39-42.91,0-24.78,16.58-40.85,42-40.85C730.37,136.06,746.43,152.13,746.43,177.94Zm-69.06-.51c0,18.8,10.77,31.28,27,31.28,16.41,0,27-12,27-30.6,0-8.89-1.71-14.87-5.64-20.34-5.13-7-12.31-10.6-21.2-10.6C688.31,147.17,677.37,159.48,677.37,177.43Z"/><path class="cls-1" d="M783.93,153c3.05-11.27,13.07-17.59,27.49-17.59,18.33,0,28.51,8.88,28.51,24.93V206.5h14v11h-42v-11h13V165.35a18.8,18.8,0,0,0-18.7-18.86c-13.69,0-22.3,9.77-22.3,25.13V206.5h14v11h-43v-11h15v-58h-15v-11h29Z"/><path class="cls-1" d="M941.59,193.5a29,29,0,0,1-4.69,12.17c-6.79,9.91-17.92,15-33.57,15-16.87,0-27.65-4.87-35.48-16-5-7.31-7.48-15.48-7.48-25.57,0-27.3,15.83-43.65,42.09-43.65,20.52,0,33.57,9,38.26,26.09,1.74,6.43,2.09,9.74,2.09,20H875.33c.52,16.87,11.65,27.82,28.7,27.82,12.87,0,22.08-5.91,24.35-15.82Zm-14.18-23c-.86-14.7-10.09-23.59-24.79-23.59-14.53,0-24.28,8.71-26.33,23.59Z"/><path class="cls-1" d="M66.3,83.5c-4.16,9.86-12.77,15.7-24.23,15.7-16.25,0-27-12.48-27-31.29,0-18,10.94-30.27,27.19-30.27,8.89,0,16.07,3.59,21.2,10.6a30.13,30.13,0,0,1,2,3.26H81.39c-5.62-15.73-19.61-25-39.32-25C16.59,26.53,0,42.6,0,67.4c0,26.33,16.25,42.92,42.41,42.92,19.72,0,34.17-10.21,39.49-26.82Z"/><circle class="cls-1" cx="928.93" cy="38.5" r="10"/><circle class="cls-1" cx="904.93" cy="67.5" r="10"/><circle class="cls-1" cx="879.93" cy="97.5" r="10"/></g></g></svg>