<svg xmlns="http://www.w3.org/2000/svg" viewBox="0 0 858.41 135.15"><defs><style>.cls-1{fill:#3a374a;}.cls-2{fill:#799fd4;}.cls-3{fill:#fff;}.cls-4{fill:#ecebeb;}</style></defs><g id="Layer_2" data-name="Layer 2"><g id="Layer_1-2" data-name="Layer 1"><rect class="cls-1" x="206.61" width="651.8" height="135.15"/><circle class="cls-1" cx="46.75" cy="15.49" r="7.77" transform="translate(30.33 61.92) rotate(-88.85)"/><path class="cls-1" d="M35.42,37.79a7.77,7.77,0,1,1-7.61-7.92A7.76,7.76,0,0,1,35.42,37.79Z"/><circle class="cls-1" cx="7.77" cy="60.55" r="7.77" transform="translate(-52.92 67.1) rotate(-88.85)"/><rect class="cls-2" x="77.1" width="120.69" height="135.15" transform="translate(274.88 135.15) rotate(180)"/><path class="cls-3" d="M101,24.61l14.31-.11a32.86,32.86,0,0,1,7.94.94,20.89,20.89,0,0,1,7.21,3.25,17.45,17.45,0,0,1,5.24,6A19.59,19.59,0,0,1,137.78,44a18.65,18.65,0,0,1-1.93,8.9A18.28,18.28,0,0,1,130.71,59a21.65,21.65,0,0,1-7.15,3.58,28.77,28.77,0,0,1-7.92,1.2l-14.31.11Zm13.44,33.11A24.69,24.69,0,0,0,120,57a14.71,14.71,0,0,0,5-2.2,11.59,11.59,0,0,0,3.65-4.17,13.77,13.77,0,0,0,1.37-6.62,14.57,14.57,0,0,0-1.48-6.87A11.33,11.33,0,0,0,124.89,33a14,14,0,0,0-5.07-2,29.36,29.36,0,0,0-5.59-.51l-6,0,.23,27.21Z"/><path class="cls-3" d="M163.3,32.89a8.69,8.69,0,0,0-3.18-2.35,9.78,9.78,0,0,0-4.13-.92,10.38,10.38,0,0,0-2.46.32,7.8,7.8,0,0,0-2.23.94,5.27,5.27,0,0,0-1.64,1.65A4.37,4.37,0,0,0,149,35a4.18,4.18,0,0,0,.57,2.23,5,5,0,0,0,1.56,1.57,10.55,10.55,0,0,0,2.38,1.13q1.41.48,3.09,1c1.28.39,2.6.83,4,1.33a15.25,15.25,0,0,1,3.77,2,10.05,10.05,0,0,1,2.83,3.14,9.49,9.49,0,0,1,1.13,4.74,11.87,11.87,0,0,1-1.13,5.44,11.37,11.37,0,0,1-3.11,3.87,13.41,13.41,0,0,1-4.57,2.32,19.79,19.79,0,0,1-5.54.81,21.46,21.46,0,0,1-7.57-1.33,14.63,14.63,0,0,1-6.09-4.08l5-4.62a10,10,0,0,0,3.92,3.08,10.6,10.6,0,0,0,7.31.79,6.67,6.67,0,0,0,2.32-1,5.65,5.65,0,0,0,1.66-1.78,5.05,5.05,0,0,0,.63-2.65,4.24,4.24,0,0,0-.75-2.53,6.34,6.34,0,0,0-2-1.73,13.64,13.64,0,0,0-2.92-1.26L152,46.24A36.74,36.74,0,0,1,148.39,45a12,12,0,0,1-3.24-2,9.84,9.84,0,0,1-2.35-3.06,10.23,10.23,0,0,1-.93-4.55,9.69,9.69,0,0,1,1.22-5.08,10.89,10.89,0,0,1,3.27-3.55A14.9,14.9,0,0,1,151,24.61a20.94,20.94,0,0,1,5.28-.72,19.31,19.31,0,0,1,6.14,1A15,15,0,0,1,167.85,28Z"/><path class="cls-3" d="M151.69,69.94l6.51,0,18.54,41-8.59.06-4-9.39-18.33.14-3.75,9.45-8.42.07Zm9.76,25.4-6.64-16.7-6.5,16.8Z"/><path class="cls-3" d="M118.42,102.68H98.14V96.5L116.8,70h8.93V96.68h6.14v6h-6.14v8.58h-7.31Zm0-24.49h-.13L105.83,96.68h12.59Z"/><path class="cls-4" d="M239.44,59.48V27.94h13.27V31.5h-9.4v9.94h8.78v3.34h-8.78V55.87h9.85v3.61Z"/><path class="cls-4" d="M274.54,59.48,264.48,35h-.14V59.48h-3.7V27.94h4.81l9.94,24.5h.13V27.94h3.7V59.48Z"/><path class="cls-4" d="M295,31.37V59.48h-4V31.37h-6V27.94h16v3.43Z"/><path class="cls-4" d="M319.53,59.48,314.19,45.4h-3.66V59.48h-3.92V27.94h8.18a11.31,11.31,0,0,1,3.28.47,7.13,7.13,0,0,1,2.7,1.49,6.83,6.83,0,0,1,1.83,2.67,10.47,10.47,0,0,1,.67,4,10.18,10.18,0,0,1-.49,3.34,8.24,8.24,0,0,1-1.29,2.43,6.73,6.73,0,0,1-1.73,1.58,5.85,5.85,0,0,1-1.83.76l5.92,14.83Zm-.26-22.79a6.66,6.66,0,0,0-.45-2.64,4.74,4.74,0,0,0-1.16-1.65,3.86,3.86,0,0,0-1.65-.87,7,7,0,0,0-1.87-.25h-3.61v11h3.7a4.79,4.79,0,0,0,3.65-1.46A5.79,5.79,0,0,0,319.27,36.69Z"/><path class="cls-4" d="M330.76,59.48V27.94H344V31.5h-9.4v9.94h8.78v3.34h-8.78V55.87h9.85v3.61Z"/><path class="cls-4" d="M365.86,59.48,355.79,35h-.13V59.48H352V27.94h4.81l9.93,24.5h.14V27.94h3.7V59.48Z"/><path class="cls-4" d="M393.39,59.48l-1.78-7.4h-9.13l-1.83,7.4h-4l7.92-31.54h5.31l7.75,31.54Zm-6.19-27.8H387l-4,17.24h8.06Z"/><path class="cls-4" d="M425.2,59.48V33.38h-.14l-7,26.1h-3.6l-6.95-26.1h-.14v26.1h-3.7V27.94h5.9l6.73,25h.18l6.61-25h6.15V59.48Z"/><path class="cls-4" d="M438.34,59.48V27.94h4V59.48Z"/><path class="cls-4" d="M451.52,59.48V27.94h13.27V31.5H455.4v9.94h8.77v3.34H455.4V55.87h9.84v3.61Z"/><path class="cls-4" d="M486.62,59.48,476.56,35h-.14V59.48h-3.7V27.94h4.81l9.94,24.5h.13V27.94h3.7V59.48Z"/><path class="cls-4" d="M507,31.37V59.48h-4V31.37h-6V27.94h16v3.43Z"/><path class="cls-4" d="M538.38,43.66a28.8,28.8,0,0,1-.73,6.75,16.87,16.87,0,0,1-2.14,5.24A10.58,10.58,0,0,1,532.13,59a9.1,9.1,0,0,1-9.07,0,10.47,10.47,0,0,1-3.41-3.38,17.12,17.12,0,0,1-2.14-5.24,28.8,28.8,0,0,1-.73-6.75,29.92,29.92,0,0,1,.71-6.74,16.87,16.87,0,0,1,2.1-5.22,10,10,0,0,1,3.4-3.34,9.06,9.06,0,0,1,4.61-1.18,8.77,8.77,0,0,1,4.53,1.18,10.45,10.45,0,0,1,3.38,3.34,16.65,16.65,0,0,1,2.14,5.22A28.77,28.77,0,0,1,538.38,43.66Zm-4.23,0a28.76,28.76,0,0,0-.42-5,16.23,16.23,0,0,0-1.25-4.1,7.83,7.83,0,0,0-2.05-2.74,4.37,4.37,0,0,0-2.83-1,4.53,4.53,0,0,0-2.89,1,7.75,7.75,0,0,0-2.07,2.74,15.85,15.85,0,0,0-1.23,4.1,31.89,31.89,0,0,0,0,10.07,15.85,15.85,0,0,0,1.23,4.1,7.66,7.66,0,0,0,2.07,2.74,4.48,4.48,0,0,0,2.89,1,4.31,4.31,0,0,0,2.83-1,7.73,7.73,0,0,0,2.05-2.74,16.23,16.23,0,0,0,1.25-4.1A28.79,28.79,0,0,0,534.15,43.66Z"/><path class="cls-4" d="M573.26,36.81a11.18,11.18,0,0,1-.66,4,8.19,8.19,0,0,1-1.81,2.88,7.7,7.7,0,0,1-2.58,1.71,8.07,8.07,0,0,1-3.05.58h-4.28v13.5h-4V27.94h8a10.8,10.8,0,0,1,2.93.42,7.23,7.23,0,0,1,2.7,1.45,7.65,7.65,0,0,1,2,2.74A10.29,10.29,0,0,1,573.26,36.81Zm-4,0a5.66,5.66,0,0,0-1.32-4.16,4.71,4.71,0,0,0-3.46-1.32h-3.59V42.64h3.59a4.47,4.47,0,0,0,3.46-1.45A6.24,6.24,0,0,0,569.25,36.85Z"/><path class="cls-4" d="M592.06,59.48l-1.78-7.4h-9.13l-1.83,7.4h-4.05l7.92-31.54h5.31l7.75,31.54Zm-6.19-27.8h-.18l-4,17.24h8.06Z"/><path class="cls-4" d="M615.23,59.48,609.88,45.4h-3.65V59.48h-3.92V27.94h8.17a11.26,11.26,0,0,1,3.28.47,7.25,7.25,0,0,1,2.71,1.49,7,7,0,0,1,1.83,2.67,10.67,10.67,0,0,1,.67,4,10.16,10.16,0,0,1-.5,3.34,8.46,8.46,0,0,1-1.28,2.43,7.08,7.08,0,0,1-1.73,1.58,5.8,5.8,0,0,1-1.84.76l5.93,14.83ZM615,36.69a6.66,6.66,0,0,0-.45-2.64,4.6,4.6,0,0,0-1.15-1.65,4,4,0,0,0-1.65-.87,7.13,7.13,0,0,0-1.87-.25h-3.61v11h3.7a4.81,4.81,0,0,0,3.65-1.46A5.78,5.78,0,0,0,615,36.69Z"/><path class="cls-4" d="M640.13,59.48l-1.78-7.4h-9.14l-1.82,7.4h-4.06l7.93-31.54h5.3l7.75,31.54Zm-6.19-27.8h-.18l-4,17.24h8.06Z"/><path class="cls-4" d="M239.44,107.21V75.67h13.27v3.56h-9.4v9.94h8.78v3.34h-8.78V103.6h9.85v3.61Z"/><path class="cls-4" d="M260.64,107.21V75.67h4v27.8h8.91v3.74Z"/><path class="cls-4" d="M293.11,79.32V89.48h8.6V93h-8.6v14.26h-4V75.67h13.27v3.65Z"/><path class="cls-4" d="M327.2,100.88a10.59,10.59,0,0,1-1.61,3.68,7.79,7.79,0,0,1-2.92,2.49,9.72,9.72,0,0,1-4.43.91,9.45,9.45,0,0,1-4.39-.91,8,8,0,0,1-2.87-2.49,10.19,10.19,0,0,1-1.58-3.68,20.65,20.65,0,0,1-.47-4.5V75.67h4V96a19.57,19.57,0,0,0,.24,3.1,9.06,9.06,0,0,0,.85,2.65,4.84,4.84,0,0,0,1.65,1.85,4.72,4.72,0,0,0,2.65.69,4.61,4.61,0,0,0,2.63-.69,4.94,4.94,0,0,0,1.62-1.85,8.5,8.5,0,0,0,.85-2.65,19.57,19.57,0,0,0,.24-3.1V75.67h4V96.38A20,20,0,0,1,327.2,100.88Z"/><path class="cls-4" d="M343,79.1v28.11h-4V79.1h-6V75.67h16V79.1Z"/><path class="cls-4" d="M372.45,100.88a10.58,10.58,0,0,1-1.6,3.68,7.87,7.87,0,0,1-2.92,2.49,9.72,9.72,0,0,1-4.43.91,9.45,9.45,0,0,1-4.39-.91,8,8,0,0,1-2.87-2.49,10.21,10.21,0,0,1-1.59-3.68,20.66,20.66,0,0,1-.46-4.5V75.67h4V96a19.57,19.57,0,0,0,.24,3.1,8.77,8.77,0,0,0,.85,2.65,4.84,4.84,0,0,0,1.65,1.85,4.7,4.7,0,0,0,2.65.69,4.63,4.63,0,0,0,2.63-.69,4.94,4.94,0,0,0,1.62-1.85,8.77,8.77,0,0,0,.85-2.65,19.57,19.57,0,0,0,.24-3.1V75.67h4V96.38A19.46,19.46,0,0,1,372.45,100.88Z"/><path class="cls-4" d="M394.59,107.21l-5.35-14.08h-3.65v14.08h-3.92V75.67h8.18a11,11,0,0,1,3.28.47,7.13,7.13,0,0,1,2.7,1.49,6.94,6.94,0,0,1,1.83,2.67,10.47,10.47,0,0,1,.67,4,10.22,10.22,0,0,1-.49,3.34A8.05,8.05,0,0,1,396.55,90a6.76,6.76,0,0,1-1.73,1.59,5.81,5.81,0,0,1-1.83.75l5.92,14.84Zm-.27-22.79a6.68,6.68,0,0,0-.44-2.64,4.65,4.65,0,0,0-1.16-1.65,3.86,3.86,0,0,0-1.65-.87A7,7,0,0,0,389.2,79h-3.61V90h3.7a4.8,4.8,0,0,0,3.65-1.45A5.78,5.78,0,0,0,394.32,84.42Z"/><path class="cls-4" d="M426,91.39a28.26,28.26,0,0,1-.74,6.75,16.87,16.87,0,0,1-2.13,5.24,10.61,10.61,0,0,1-3.39,3.38,8.56,8.56,0,0,1-4.52,1.2,8.65,8.65,0,0,1-4.54-1.2,10.47,10.47,0,0,1-3.41-3.38,16.87,16.87,0,0,1-2.14-5.24,28.8,28.8,0,0,1-.73-6.75,29.51,29.51,0,0,1,.71-6.75,16.56,16.56,0,0,1,2.09-5.21,10.06,10.06,0,0,1,3.41-3.34,9,9,0,0,1,4.61-1.18,8.64,8.64,0,0,1,4.52,1.18,10.47,10.47,0,0,1,3.39,3.34,16.58,16.58,0,0,1,2.13,5.21A28.37,28.37,0,0,1,426,91.39Zm-4.23,0a28.68,28.68,0,0,0-.42-5,16.65,16.65,0,0,0-1.25-4.1,7.73,7.73,0,0,0-2.05-2.74,4.33,4.33,0,0,0-2.83-1,4.46,4.46,0,0,0-2.89,1,7.56,7.56,0,0,0-2.08,2.74,15.86,15.86,0,0,0-1.22,4.1,31.89,31.89,0,0,0,0,10.07,15.66,15.66,0,0,0,1.22,4.09,7.6,7.6,0,0,0,2.08,2.75,4.51,4.51,0,0,0,2.89,1,4.39,4.39,0,0,0,2.83-1,7.78,7.78,0,0,0,2.05-2.75,16.43,16.43,0,0,0,1.25-4.09A28.87,28.87,0,0,0,421.81,91.39Z"/><path class="cls-4" d="M463.59,91.48q0,7.67-3.12,11.7a10.42,10.42,0,0,1-8.73,4h-7.21V75.67h7.26a10.34,10.34,0,0,1,8.71,4Q463.59,83.77,463.59,91.48Zm-4,0a21.76,21.76,0,0,0-.6-5.43,11.89,11.89,0,0,0-1.64-3.83A6.84,6.84,0,0,0,454.86,80a6.47,6.47,0,0,0-3.08-.76h-3.25v24.5h3.25a6.47,6.47,0,0,0,3.08-.76,6.84,6.84,0,0,0,2.48-2.27A12,12,0,0,0,459,96.85,21.37,21.37,0,0,0,459.58,91.48Z"/><path class="cls-4" d="M471.39,107.21V75.67h4v31.54Z"/><path class="cls-4" d="M494.33,74.91a10.26,10.26,0,0,1,4.5.94,8.07,8.07,0,0,1,3.25,2.85l-2.5,2.71a6.62,6.62,0,0,0-2.27-2.13,5.64,5.64,0,0,0-2.8-.72,5,5,0,0,0-3.14,1,8.1,8.1,0,0,0-2.21,2.78,15.07,15.07,0,0,0-1.31,4.1,26.89,26.89,0,0,0-.43,4.92,25.9,25.9,0,0,0,.47,5.06,14.59,14.59,0,0,0,1.38,4,7.67,7.67,0,0,0,2.3,2.7,5.48,5.48,0,0,0,3.25,1,5.81,5.81,0,0,0,3.78-1.07V93.35h-4.14V89.88h8v15.37a11,11,0,0,1-3.23,1.85,13.22,13.22,0,0,1-4.52.69,10,10,0,0,1-4.86-1.18,10.92,10.92,0,0,1-3.63-3.32A16,16,0,0,1,484,98.12a27,27,0,0,1-.78-6.73,26.68,26.68,0,0,1,.76-6.57,17.24,17.24,0,0,1,2.18-5.21,10.76,10.76,0,0,1,3.5-3.45A9,9,0,0,1,494.33,74.91Z"/><path class="cls-4" d="M510.9,107.21V75.67h4v31.54Z"/><path class="cls-4" d="M530.63,79.1v28.11h-4V79.1h-6V75.67h16V79.1Z"/><path class="cls-4" d="M555.18,107.21l-1.78-7.4h-9.14l-1.82,7.4h-4.06l7.93-31.54h5.3l7.75,31.54ZM549,79.41h-.18l-4,17.24h8.06Z"/><path class="cls-4" d="M565.42,107.21V75.67h4v27.8h8.91v3.74Z"/></g></g></svg>