<svg xmlns="http://www.w3.org/2000/svg" xmlns:xlink="http://www.w3.org/1999/xlink" viewBox="0 0 852.52 1196.07"><defs><style>.cls-1,.cls-10{fill:#f15f71;}.cls-2{fill:#7a9fd0;}.cls-3{font-size:71.8px;fill:#e5e5e5;font-family:AvenirNextCondensed-Medium, Avenir Next Condensed;font-weight:500;letter-spacing:0.3em;}.cls-4{letter-spacing:0.31em;}.cls-5{letter-spacing:0.28em;}.cls-6{letter-spacing:0.29em;}.cls-7{fill:#f9fcfd;}.cls-8{fill:#b3b1b2;}.cls-9{clip-path:url(#clip-path);}.cls-10{font-size:10.16px;font-family:MyriadPro-Regular, Myriad Pro;}.cls-11{letter-spacing:0em;}.cls-12{letter-spacing:-0.01em;}.cls-13{letter-spacing:-0.01em;}.cls-14{letter-spacing:0em;}.cls-15{letter-spacing:-0.01em;}.cls-16{letter-spacing:0em;}.cls-17{letter-spacing:0.01em;}.cls-18{letter-spacing:0em;}</style><clipPath id="clip-path"><polygon class="cls-1" points="316.13 422.3 317.28 422.83 318.11 423 320.88 423 321.65 423.15 322.44 423.52 323.62 424.31 324.14 424.82 324.4 424.99 324.89 425.13 326.26 425.1 326.61 425.26 327.36 425.84 328.14 426.12 329.88 426.46 331.15 427.11 331.89 427.66 332.3 428.32 332.47 428.53 332.64 428.84 332.78 429.59 335.08 433.54 335.34 434.6 336.78 436.75 337.02 437.51 336.79 438.38 336.32 439.21 335.86 439.81 334.84 440.57 332.21 442.02 331.44 442.88 330.89 443.18 330.24 443.42 329.74 443.53 329.56 443.86 328.82 445.94 328.65 446.26 328.65 446.26 328.65 446.26 327.5 446.23 326.82 446.61 325.52 447.73 324 448.38 322.97 448.65 320.74 449.23 318.51 449.82 316.28 450.4 314.05 450.99 311.82 451.57 309.59 452.15 307.36 452.74 305.13 453.32 304.14 453.57 303.4 454.07 302.74 455.02 302.36 455.74 301.22 457.87 300.09 460 298.95 462.13 297.81 464.26 296.68 466.39 295.55 468.51 294.41 470.64 293.27 472.77 292.87 473.27 292.2 473.44 290.79 473.07 290.05 472.99 289.28 473.15 287.17 473.94 285.53 474.01 284.71 474.14 284.03 474.59 283.86 474.94 283.83 475.68 283.72 476.06 283.43 476.47 282.71 477.25 282.4 477.69 281.09 480.93 280.41 481.88 279.7 482.56 278.04 483.73 277.04 484.88 276.16 486.6 274.32 491.88 273.29 493.57 270.94 496.31 270.24 498.34 269.71 499.06 269.08 499.7 268.49 500.5 268.21 501.25 268.19 501.44 268.16 501.99 268.18 502.75 267.42 511.23 265.44 518.02 265.43 519.53 265.11 521.04 265.08 521.84 265.33 522.83 265.67 523.55 265.82 524.26 265.52 525.26 264.32 527.72 262.23 530.98 261.27 533.6 260.87 534.31 260.26 534.95 258.73 535.91 258.17 536.43 257.45 538.14 254.41 542.65 253.1 545.95 252.62 546.74 251.94 547.38 250.53 548.36 250.09 549.11 250.07 549.94 250.58 550.26 251.12 550.24 255.3 550.14 256.89 549.92 258.26 549.24 259.57 548.01 260.23 547.56 261.21 547.29 262.07 546.8 263.72 545.25 264.6 545.22 264.83 545.5 265.31 546.9 265.29 547.04 265.14 547.39 265.13 547.53 265.26 547.72 265.62 548.09 265.73 548.26 265.88 549.2 265.78 550.82 265.99 551.65 266.67 552.6 267.39 552.78 268.16 552.48 269.46 551.62 269.76 551.46 270.23 551.32 270.67 551.33 271 551.45 271.28 551.45 271.57 551.14 272.29 551.84 272.92 552.21 273.13 552.66 272.58 553.54 273.23 554.29 273.42 555.02 273.85 556.71 274.29 558.39 274.73 560.07 275.17 561.76 275.61 563.44 276.05 565.12 276.49 566.8 276.92 568.49 277.32 570.03 278.09 571.33 278.79 572.09 279.54 572.9 280.28 573.71 281.03 574.53 281.78 575.34 282.52 576.15 283.27 576.96 284.02 577.77 284.77 578.59 285.67 579.57 286.12 579.94 286.5 580.1 286.86 580.19 287.22 580.38 287.24 580.39 287.69 580.85 288.06 581.43 288.32 582.08 288.42 582.73 288.35 583.35 288.01 584.61 287.97 585.24 288.17 586.09 289.44 588.48 290.26 591.11 290.33 592.59 289.71 593.47 289.06 593.46 288.26 593.33 287.54 593.42 287.16 594.11 286.98 594.87 286.67 595.47 286.22 595.98 285.65 596.45 285.25 596.65 284.81 596.81 284.47 597.06 284.34 597.51 284.51 597.85 285.31 598.77 285.58 599.2 285.74 599.87 285.84 601.53 285.75 602.21 284.99 604.55 284.64 608.58 284.75 609.36 285.27 610.87 285.4 611.6 285.25 612.45 284.92 613.22 284.69 614.01 284.82 614.91 285.86 616.61 287.25 617.63 287.97 617.87 288.92 618.19 290.79 618.54 293.92 618.49 295.19 618.85 296.5 620.56 296.71 620.69 296.8 620.89 296.44 622.45 296.41 622.78 296.51 623.92 296.79 625.04 297.2 626.12 299.3 630.18 299.96 630.95 300.39 631.24 301.44 631.71 301.95 632.02 302.84 632.77 303.27 633.01 303.28 633.01 304.41 633.28 307.57 634.02 308.82 634.13 309.41 634.03 309.82 633.78 310.19 633.46 310.67 633.15 311.09 633.13 311.5 633.22 311.74 633.08 311.64 632.4 312.74 632.38 313.64 632.23 314.54 632.17 315.62 632.44 315.47 631.81 315.72 631.53 316.2 631.46 317.5 631.51 317.81 631.73 318.02 632.04 318.47 632.35 318.74 632.38 319.01 632.3 319.52 632 319.85 631.93 320.04 632.08 320.13 632.29 320.2 632.39 320.23 632.42 320.98 632.47 320.97 632.42 321.01 632.36 321.7 632.18 322.55 632.4 323.31 633.03 323.76 632.91 324.76 632.44 325.36 632.32 325.95 632.38 327.18 632.71 327.81 632.76 329.4 632.46 329.98 632.52 330.32 632.78 330.4 633.23 330.43 633.71 330.63 634.11 331.14 634.33 333 634.37 333.44 634.59 333.74 634.84 334.11 634.94 334.78 634.73 335.27 634.39 335.58 634.04 335.94 633.81 338.62 634.1 340.69 633.86 342.59 633.14 344.21 631.99 344.62 631.46 344.79 631.08 345.09 630.88 345.88 630.85 347.34 630.37 349 630.24 351.28 629.7 352.41 629.67 352.66 629.8 353.2 630.26 353.56 630.39 354.85 630.69 355.47 630.66 356.55 630.32 357.16 630.22 357.43 630.46 359.36 632.91 359.75 633.13 360.35 633.3 360.76 633.3 361.63 633.19 361.99 633.21 362.17 633.33 362.4 633.67 362.52 633.78 363.09 633.98 367.04 635.88 368.24 635.93 370.39 634.72 371.77 634.37 373.18 634.29 374.27 634.56 375.51 635.64 376.17 636.47 379.06 640.13 381.94 643.79 384.83 647.45 387.72 651.11 390.61 654.77 393.49 658.43 396.38 662.09 399.27 665.75 400.37 667.15 400.82 667.15 400.85 667.15 401.8 666.88 403.63 666.02 404.65 665.84 405.41 666.23 407.04 668.1 407.89 668.74 410.06 667.52 412.32 665.32 413.14 664.84 414.21 663.81 414.94 663.49 415.86 663.45 416.65 663.63 418.08 664.27 418.75 664.08 419.61 664.28 420.52 664.6 421.34 664.77 423.77 664.64 424.58 664.77 427.01 665.51 427.87 665.61 428.65 665.78 430.24 666.52 431.15 666.63 431.66 666.39 432.66 665.51 433.08 665.32 435.45 665.19 438.24 664.36 439.07 664.27 439.86 664.37 442.35 665.06 443.76 665.05 448.1 663.49 449.76 663.26 454.62 663.73 456.18 663.49 457.5 663.03 457.87 662.97 458.23 662.85 458.53 662.55 458.73 662.17 458.8 661.78 458.98 661.29 459.42 661.17 459.94 661.19 460.36 661.11 460.76 660.78 461.46 660.05 461.92 659.83 462.25 659.81 462.93 660.01 465.58 660.24 471.56 661.63 472.67 662.33 473.68 663.31 474.74 664.11 476.24 664.25 476.28 664.25 476.04 664.43 475.29 665 474.87 665.44 474.7 665.97 474.71 667.45 476.12 669.65 477.1 670.36 477.39 671.13 477.48 672.01 477.33 672.66 476.86 673.05 475.49 673.63 474.94 673.97 473.14 675.94 472.79 676.55 470.52 678.7 469.61 680.08 469 681.6 468.7 683.24 468.7 684.99 469.13 687.24 469.2 687.99 469.33 688.17 469.9 688.72 470.03 688.91 469.92 689.37 469.69 689.68 469.43 689.93 469.2 690.22 468.78 691.6 468.57 691.81 468.12 691.92 467.7 692.22 467 692.98 466.68 693.2 465.56 693.63 465.35 693.8 464.99 694.24 464.78 694.42 464.6 694.45 464.18 694.39 464 694.42 462.58 695.6 461.64 697.11 461.29 698.72 461.66 700.18 462 700.8 462.25 701.37 462.39 702.04 462.44 702.95 462.36 703.28 462.02 704.18 461.92 704.65 461.9 705.08 461.94 705.48 462.02 705.85 462.15 706.24 462.39 706.6 463.08 707.4 463.22 707.66 463.14 708.07 462.96 708.33 462.78 708.52 462.7 708.72 462.76 710.41 462.7 711.14 462.21 712.63 461.95 714.1 461.92 714.99 461.99 715.24 462.34 715.92 462.44 716.17 462.43 716.64 462.3 716.9 462.25 717.12 462.44 717.48 462.17 718.2 462.08 719.88 461.79 720.49 461.41 721.1 461.22 721.93 461.1 724.06 460.86 725.07 460.91 726.29 460.86 726.66 460.65 726.97 460.38 727.15 460.16 727.41 460.1 727.94 460.22 728.36 460.48 728.72 460.8 729.02 461.14 729.26 461.14 729 461.85 729.51 462.12 730.01 462.44 731.35 462.6 731.5 463.07 731.67 463.22 731.89 463.23 732.21 463.02 732.74 462.96 733.04 463.08 733.54 463.62 734.38 463.74 734.88 463.64 735.34 462.96 736.59 462.77 738.02 462.98 739.29 463.31 740.48 463.48 741.67 463.8 742.4 464.52 742.98 465.23 743.74 465.56 744.98 465.98 745.41 466.23 746.12 466.12 746.75 466.11 746.77 466.37 746.91 466.7 747.82 466.82 750.18 467 751 468.52 753.64 468.88 754.58 469.09 756.47 469.36 757.36 470.03 758.17 470.77 758.54 471.46 758.55 472.17 758.42 472.95 758.37 474.38 759.04 475.47 760.48 478.04 767.18 478.56 767.92 479.12 768.31 480.55 768.87 481.81 770.18 481.63 771.78 480.65 773.37 478.34 776.25 477.88 776.61 477.49 776.75 476.65 776.91 476.2 777.13 475.48 777.79 473.85 779.3 472.22 780.81 470.59 782.32 468.96 783.83 467.33 785.34 465.7 786.85 464.07 788.37 462.44 789.88 461.48 790.76 460.85 791.83 460.82 794.43 461.38 793.99 461.69 793.46 462.07 793 462.83 792.8 463.66 792.84 464.09 792.81 464.82 792.44 465.14 792.57 465.56 793.04 467.13 793.8 468.07 793.99 468.83 793.71 469.56 793.53 470.25 794.1 470.79 794.95 471.06 795.64 471.27 797.36 471.5 798.2 471.95 798.55 473.66 798.58 474.37 798.79 474.94 799.31 475.1 799.63 475.33 800.35 475.49 800.63 475.83 800.89 476.65 801.28 476.81 801.53 476.94 801.84 477.54 802.59 477.69 802.74 478.17 802.88 478.44 803.22 478.64 803.64 478.89 804.04 479.25 804.32 480.09 804.77 480.45 805.08 480.63 805.47 480.8 805.99 481.02 806.45 481.36 806.64 481.78 806.77 482.19 807.07 482.92 807.79 483.26 808 484.61 808.44 485.89 809.21 486.19 809.5 486.33 809.88 486.34 810.6 486.56 810.95 486.8 811.71 486.29 812.49 485.56 813.18 485.13 813.69 485.14 814.39 485.75 815.85 486.02 817.02 486.64 818.64 486.97 819.15 487.55 819.48 488.24 819.69 488.81 819.99 489.05 820.61 489.18 822.67 489.05 823.34 488.88 823.62 488.27 824.4 488.37 824.88 488.63 825.27 488.92 825.58 489.21 826.07 489.93 826.57 490.09 826.86 490.19 827.27 490.87 828.56 494.14 837.26 494.25 838.08 494.25 839.78 494.4 840.53 494.77 841.36 495.58 842.69 495.94 843.51 496.09 844.36 495.83 845.92 495.98 846.45 496.33 846.84 496.77 847.19 497.16 847.6 497.56 848.36 497.85 849.29 497.89 850.2 497.19 851.61 497.38 852.51 498.17 854.14 496.71 854.44 494.24 855.12 490.93 856.04 490.14 855.92 489.82 854.96 489.68 852.97 490.61 842.01 490.26 839.59 488.95 835.59 487.49 832.6 483.33 827.1 482.43 825.49 481.21 822.51 480.45 821.1 479.49 820.15 478.88 819.85 477.25 819.27 476.67 819.21 476.31 819.42 475.67 820.1 475.32 820.27 473.99 820.44 473.34 820.85 472.31 821.74 470.84 822.44 467.91 825.55 463.32 831.67 462.16 832.76 460.65 833.62 459.41 834.07 458.05 834.39 456.68 834.43 455.41 834.05 454.13 833.01 453.11 831.52 452.32 829.87 451.49 827.42 451.11 826.72 450.54 826.2 449.66 825.84 448.88 825.68 448.6 825.55 448.29 825.26 448.21 824.98 448.2 824.22 448.02 823.96 447.69 824.23 445.41 829.93 444.67 831.03 444.92 831.19 445.89 831.31 446.24 831.76 446.16 832.59 446.24 833.28 447.67 833.34 447.97 833.53 448.08 833.86 448.04 834.34 448.15 834.59 448.47 834.83 449.12 835.15 446.26 835.15 444.43 835.15 439.63 835.16 432.84 835.16 425.05 835.17 417.27 835.18 410.47 835.18 405.67 835.19 403.85 835.19 402.29 835 399.4 833.77 396.63 833.19 395.17 833.28 392.55 834.48 390.99 834.61 390.18 834.49 389.5 834.47 388.85 834.62 387.22 835.47 386.52 835.68 385.24 835.67 384.67 835.67 384.95 837.14 384.93 839.76 384.92 842.38 384.9 844.99 384.89 847.61 384.87 850.23 384.86 852.85 384.84 855.46 384.83 858.08 384.82 860.36 385.69 860.44 387.27 859.41 388.23 859.15 388.72 859.17 389.21 859.25 389.55 859.46 389.6 860.29 390 860.39 393.66 859.85 394.54 859.88 396.2 860.45 396.59 860.5 397.84 860.48 399.06 860.31 399.42 860.36 399.76 860.52 399.93 860.69 400.04 860.86 400.24 861.03 400.95 861.46 401.34 861.53 403.14 860.22 403.75 860.06 404.37 860.18 406.27 861.15 406.82 861.54 407.47 862.36 408.12 862.78 408.4 863.06 408.5 863.41 408.54 863.86 408.65 864.25 409.49 864.76 409.27 866.14 409.88 866.73 410.76 867.07 411.21 867.33 411.46 867.65 411.46 868.17 411.18 868.35 410.82 868.4 410.59 868.54 410.5 869.34 410.88 871.03 410.88 871.91 410.62 872.31 410.22 872.61 409.94 872.94 410.06 873.47 410.37 873.76 411.19 874.14 411.48 874.4 411.89 875.25 412.03 875.94 411.8 876.42 411.08 876.65 410.74 876.6 410.03 876.34 409.63 876.35 409.33 876.53 408.93 877.11 408.65 877.29 408.04 877.33 406.64 877.12 405.95 877.16 406.12 876.11 405.76 875.7 405.07 875.7 404.23 875.94 403.46 876.29 403.22 876.16 400.52 873.44 399.83 872.97 399.06 872.79 398.09 872.91 397.34 873.25 396.11 874.04 395.4 874.12 394.64 874.45 394.25 875.28 393.69 875.92 392.47 875.66 391.39 875.18 390.82 875.23 389.36 876.37 388.04 877.06 386.6 877.59 385.06 877.9 382.45 878.06 381.71 878.27 380.99 878.39 380.09 878.22 379.22 878.24 378.4 878.62 377.69 878.82 377.13 878.3 377.06 880.95 377.03 881.92 376.96 884.48 376.85 888.1 376.74 892.24 376.63 896.39 376.53 900.01 376.46 902.57 376.43 903.54 376.38 905.45 376.6 906.79 377.05 907.59 378.52 909.29 380.46 911.06 381.31 912.33 381.72 912.66 382.43 912.94 383.94 913.28 384.59 913.7 384.84 914.05 385.19 914.9 385.48 915.28 385.86 915.55 386.74 915.96 387.13 916.24 388.27 917.48 388.84 917.94 391.89 919.08 392.54 919.43 393.2 920 393.67 920.67 393.98 921.43 394.15 922.28 394.17 923.41 394.25 923.78 394.45 924.17 394.7 924.46 394.92 924.78 395.02 925.24 394.77 926.14 393.58 927.93 393.34 928.62 393.72 929.51 395.16 931.13 395.46 931.67 395.35 932.65 395.44 933.03 395.78 933.57 396.04 933.8 396.31 933.94 396.58 934.15 396.81 934.56 396.85 935.01 396.76 935.37 396.73 935.75 396.99 936.26 397.3 936.52 398.13 936.88 398.49 937.1 399.32 938.31 399.56 938.51 399.94 938.57 400.13 938.65 400.25 938.8 400.4 939.09 400.32 939.18 400.52 940.63 400.44 941.05 400.2 941.83 400.2 942.28 401.64 944.59 402.06 945.73 401.23 947.86 401.23 947.88 401.34 949.59 400.71 953.11 400.74 954.85 400.05 957.45 400.06 958.23 399.51 960.14 399.08 962.48 397.96 968.62 396.85 974.76 395.73 980.9 394.61 987.04 393.49 993.18 392.38 999.32 391.26 1005.47 390.14 1011.61 389.02 1017.75 387.9 1023.9 386.79 1030.05 385.67 1036.19 384.55 1042.34 383.44 1048.49 382.32 1054.64 381.2 1060.8 381.16 1060.88 381.12 1060.96 381.07 1061.05 381.03 1061.13 380.99 1061.21 380.94 1061.3 380.9 1061.39 380.86 1061.47 380.82 1061.55 380.78 1061.63 380.74 1061.72 380.69 1061.81 380.65 1061.89 380.61 1061.97 380.57 1062.06 380.52 1062.14 379.47 1060.02 378.8 1059.04 378.03 1058.14 376.89 1057.21 373.03 1055.24 372.02 1054.22 371.62 1052.96 371.4 1051.6 370.93 1050.25 370.02 1048.95 368.77 1047.64 367.35 1046.6 365.88 1046.09 364.81 1046.2 363.99 1046.7 362.5 1048.07 361.51 1048.49 360.5 1048.48 358.47 1047.97 358.06 1047.69 352.89 1044.98 351.24 1044.8 352.52 1042.8 355.5 1038.13 358.49 1033.47 361.48 1028.8 364.46 1024.13 367.45 1019.46 370.44 1014.79 373.42 1010.13 376.41 1005.47 377.26 1004.11 377.27 1004.08 377.06 1004.01 376.62 1003.67 376.31 1003.21 376.06 1002.64 375.57 1000.96 375.16 1000.68 374.39 1001.2 374.17 1001.55 374 1001.96 373.79 1002.27 373.46 1002.36 373.11 1002.16 373.04 1001.83 373.06 1001.44 372.94 1001.06 372.19 1000.47 371.54 1000.65 370.91 1000.95 370.2 1000.68 369.77 1000 369.24 998.38 368.76 997.67 367.93 997.26 367.19 997.5 366.43 997.97 365.5 998.22 365.31 998.11 365.07 997.83 364.88 997.48 364.86 997.15 365.04 996.98 365.69 996.73 365.88 996.61 366.06 995.78 365.58 995.41 364.77 995.33 363.95 995.33 363.53 995.43 362.63 995.82 362.24 995.85 361.79 995.63 361.58 995.31 361.44 994.92 361.22 994.51 360.75 994.1 360.08 993.77 359.36 993.55 358.72 993.47 358.13 993.17 357.66 992.63 357.16 992.31 356.5 992.73 356.4 993.09 356.43 993.51 356.4 993.88 356.1 994.03 354.53 994.03 354.27 993.83 354.2 993.36 354.2 992.83 354.15 992.45 353.92 992.03 352.72 991.04 352.57 990.96 352.57 989.86 352.48 989.56 352.29 989.37 351.3 989.24 350.6 989.07 349.19 988.57 347.88 987.71 345.91 985.61 344.75 984.9 343.96 985.25 343.01 985.07 341.39 984.38 340.3 984.35 339.9 984.89 339.98 985.76 340.33 986.73 339.99 986.92 339.54 986.97 339.06 986.87 338.1 986.29 337.61 986.28 336.55 986.47 335.68 986.87 334.95 988.68 333.87 989.23 333.16 989.78 332.75 989.87 332.34 989.74 331.88 989.4 331.47 989.3 330.91 989.52 330.11 989.94 329.4 990.11 329.11 989.59 326.38 990.91 325.09 991.19 324.66 990.39 324.81 990.1 325.34 989.63 325.44 989.3 325.31 988.91 324.4 987.76 323.74 986.58 323.35 986.44 322.82 986.99 322.44 988.41 322.15 988.86 321.54 988.57 321.28 987.99 321.23 986.4 321.05 985.68 320.62 985.35 318.43 984.9 317.64 984.48 316.93 983.93 316.18 983.48 315.28 983.32 314.01 983.98 313.27 984.09 312.94 983.45 313 982.11 312.71 981.9 311.88 982.28 309.66 983.68 309.28 983.71 309.09 984.1 307.72 986.21 305.92 987.6 305.64 987.89 305.46 988.74 305 989.21 304.33 989.38 301.94 989.04 300.7 989.05 299.64 989.47 298.57 990.39 296.89 992.32 296.33 992.5 293.87 991.93 293.49 991.96 292.51 992.16 292.31 992.32 292.34 993.1 292.24 993.37 291.91 993.47 291.02 993.56 289.5 993.96 288.65 994.03 287.94 993.87 287.27 993.51 286.76 993.05 286.57 992.59 286.23 992.3 282.32 991.68 281.61 991.46 279.88 990.06 279.21 989.69 278.51 989.59 278.03 990.2 277.03 992.28 276.55 992.73 275.92 992.94 275.69 992.86 275.56 991.86 275.45 991.47 275.3 991.14 275.11 990.86 274.63 991.09 274.33 991.36 274.14 991.72 274.04 992.19 273.04 991.47 272.4 991.25 271.46 991.73 270.37 992.11 269.92 992.55 269.39 992.74 267.78 993.06 267.43 993.07 267.13 992.83 266.76 992.19 266.12 990.43 265.56 989.94 265.44 989.73 262.82 988.28 262.73 988.69 262.27 989.56 261.78 990.01 261.54 989.2 261.2 988.86 259.54 988.45 258.92 988.02 258.82 987.73 258.63 986.6 258.51 986.39 258 985.99 257.88 985.8 257.8 985.58 257.44 985 257.36 984.62 257.41 984.24 257.53 983.99 257.88 983.58 259.26 982.33 259.62 981.5 260.74 979.66 260.23 979.18 259.93 978.38 259.72 977.5 259.46 976.79 258.8 975.81 258.54 975.31 258.4 974.71 258.45 974.17 258.83 973.22 258.92 972.87 258.7 972.23 257.8 971.17 257.59 970.64 257.88 969.23 257.62 968.81 257.3 968.6 256.94 968.45 256.58 968.19 255.56 967.04 255.17 967.04 255.02 968.05 254.78 968.18 253.5 967.85 252.91 967.92 252.3 968.52 252.01 968.94 251.62 968.88 250.71 968.05 250.23 967.75 249.77 967.69 249.35 967.71 248.81 967.64 248.39 967.7 248.21 967.67 248.16 967.54 248.03 967.02 247.97 966.88 245.51 965.38 244.75 964.43 244.83 962.96 245.27 961.7 245.59 961.12 246.52 960.57 246.56 959.85 246.16 958.25 246.1 957.75 246.11 957.35 246.04 956.98 245.74 956.57 244.94 955.98 244.52 955.31 243.1 954.65 242.75 954.07 243.35 953.35 243.53 952.94 242.94 952.67 242.72 952.42 242.54 952.11 242.47 951.85 242.43 951.02 242.35 950.71 242.23 950.43 242.09 950.39 241.58 950.46 241.43 950.43 241.36 950.26 241.3 949.84 241.03 949.25 240.93 948.83 240.73 948.49 239.84 948.23 239.11 947.69 238.69 947.57 237.81 947.42 237.08 947.02 236.55 946.44 236.23 945.75 235.66 945.97 235.05 946.93 234.41 947.29 233.96 947.28 233.35 947.15 232.33 946.79 231.8 946.44 231.43 946.04 230.75 944.97 230.16 943.46 229.94 943.1 229.31 942.88 228.13 943.14 227.6 942.86 227.55 942.55 227.91 941.88 227.87 941.57 227.55 941.29 227.36 941.4 227.22 941.64 227.09 941.8 226.67 942 226.47 942.2 226.25 942.26 225.78 942.06 225.48 941.8 225.29 941.48 224.4 938.83 223.97 938.42 223.38 939.54 222.34 939.57 220.02 938.68 217.75 938.27 216.74 937.72 215.88 936.6 215.34 934.88 214.96 934.37 214.01 933.73 213.78 933.39 214.04 932.94 214.51 932.85 215.13 932.96 215.66 932.96 215.88 932.54 215.68 932.06 215.29 931.65 215.07 931.21 215.36 930.6 215.07 930.47 214.41 930.45 214.04 930.34 213.78 930.17 212.49 928.74 212.23 928.18 212.24 927.46 212.42 927.13 212.91 926.71 213 926.44 211.18 922.52 211.1 922.17 211.1 922.16 211.06 921.74 210.98 921.36 210.79 921.19 210.27 921.17 210.07 921.09 209.74 920.55 209.24 919.99 208.78 919.6 206.47 918.21 205.48 917.42 203.88 915.73 202.8 913.92 202.44 913.63 202.03 913.71 201.71 913.9 201.47 914.08 201.28 914.17 200.75 914.15 200.53 914.01 200.41 913.82 200.21 913.63 199.95 913.43 199.79 913.27 199.55 913.15 198.6 913.07 197.85 912.87 197.46 912.83 196.79 912.6 197.09 912.09 198.13 911.29 196.83 908.65 196.29 907.89 195.5 907.19 195.04 907.29 194.09 908.81 193.66 909.14 193.28 909.18 192.65 908.95 191.35 908.67 190.54 908.31 190.03 907.92 188.47 906.23 188.23 906.04 187.88 905.94 187.21 905.92 186.89 905.81 186.45 905.38 184.95 903.33 184.22 902.75 183.42 902.35 181.71 901.88 180.95 901.8 180.36 901.93 180 902.32 179.87 903.05 179.68 903.54 179.2 904.11 178.6 904.57 178.03 904.77 177.32 904.35 174.9 903.47 172.77 903.06 172.03 902.53 171.12 902.21 168.9 900.85 167.11 899.25 166.43 899.02 166.04 898.78 165.56 898.23 164.95 897.69 164.2 897.44 163.48 897.53 161.84 897.9 160.96 897.99 160.12 897.91 159.38 897.73 158.75 897.48 157.68 896.88 156.15 895.75 155.83 895.23 153.52 893.8 152.57 892.93 152.15 892.32 151.98 891.58 151.79 891.1 149.24 887.88 149.07 887.42 148.71 886.85 147.85 886.96 146.89 887.27 146.19 887.3 146 887 145.78 886 145.55 885.59 145.24 885.45 144.81 885.42 143.98 885.46 143.05 885.4 142.22 885.21 141.47 884.88 140.73 884.4 139.68 883.29 139.3 883.12 138.88 883.24 138.19 883.76 137.99 883.88 137.78 884.07 136.83 885.2 136.48 885.33 136.07 885.41 135.25 885.46 134.89 885.39 134.91 885.64 134.81 888.48 135.21 891 134.54 891.45 130.76 891.89 129.77 892.4 129.22 892.47 128.5 892.22 127.48 891.27 126.88 890.85 126.33 890.69 124.47 890.49 123.16 890.13 122.69 890.3 122.78 891.82 122.2 891.84 120.84 891.23 120.36 891.18 117.72 891.58 117.14 891.55 116.6 891.36 115.95 890.88 115.12 890.04 114.73 889.76 114.1 889.54 113.63 889.47 112.1 889.44 110.97 889.06 109.51 887.41 108.72 887.21 108.2 887.08 107.54 887.2 105.62 887.92 104.79 887.97 104.2 887.79 103.64 887.51 102.92 887.25 98.87 886.42 97.54 885.94 96.51 885.15 96.12 884.18 95.95 883.04 95.61 881.76 95.36 877.76 94.85 875.91 93.28 875.52 93.09 875.54 91.98 875.7 90.59 875.15 88.09 873.42 87.28 872.23 87.03 869.49 85.9 868.59 84.95 868.59 81.92 869.74 81.15 869.9 80.38 869.88 79.57 869.7 78.68 869.36 78.28 869.01 78.2 868.6 78.21 868.18 78.08 867.79 77.71 867.4 77.52 867.38 77.33 867.48 76.92 867.47 74.33 866.5 71.63 866.4 70.03 865.62 65.07 861.87 64.29 861.46 62.03 860.85 61.3 860.49 60.4 859.81 56.82 855.83 56.39 855.49 56.12 855.28 54.01 854.8 53.44 854.85 52.89 855.16 52.68 854.55 51.88 853.7 51.73 853.31 51.67 852.58 51.31 852.47 50.78 852.64 50.18 852.74 49.29 852.46 48.54 851.88 47.97 851.12 47.59 850.27 47.2 849.63 46.08 848.72 45.28 847.61 43.04 846.08 43.65 845.79 43.39 845.11 42.92 844.71 42.41 844.38 42.06 843.95 42.02 843.37 42.1 842.65 42.1 841.92 41.82 841.35 41.58 841.28 41.09 841.51 40.34 841.85 40.03 841.48 39.64 841.13 39.14 841.06 38.77 840.72 37.95 840.26 37.6 840.1 36.6 839.47 36.04 838.87 35.7 838.31 35.89 837.67 36.19 837.3 36.78 837.08 37.53 836.89 38.2 836.26 38.8 835.1 39.32 834.39 40.29 833.42 41.08 832.52 41.6 831.96 42.38 831.33 44.16 830.93 45.02 831.07 45.68 830.99 46.51 831.17 47.23 831.49 48.05 831.69 49.32 831.78 50.17 831.96 51.27 832.1 51.46 832.2 51.73 832.51 52.09 832.78 52.48 832.9 52.84 832.83 52.82 832.29 52.87 832 53.02 831.4 53.53 830.84 53.8 829.87 53.5 829.25 53.55 828.68 53.61 828.55 53.74 828.37 53.84 828.12 53.83 827.78 53.72 827.55 53.57 827.71 53.33 828.18 52.84 828.46 52.08 828.46 51.84 827.96 51.82 827.25 51.98 826.48 52.03 825.9 52.23 824.97 52.27 824.51 52.15 824.18 51.84 823.79 51.45 823.46 51.06 823.33 50.65 823.57 50.33 824.06 49.94 825.27 49.53 825.48 49.25 825.18 49.19 824.39 49.06 823.35 48.59 822.05 48.26 820.25 47.92 818.94 47.82 817.3 48.26 816.36 48.73 815.32 49 814.35 50.02 813.93 50.34 812.85 51.47 810.82 52.3 809.17 52.74 808.02 53.31 807.42 53.07 808.05 53.03 808.7 53.14 809.35 53.31 809.99 53.85 808.27 54.18 806.42 54.6 805.65 55.31 805.83 56.27 804.63 57.22 803.5 58.14 802.16 58.95 801.85 59.62 801.21 60.43 800.44 61.42 799.84 61.88 799.87 62.23 800.76 62.66 801.78 63.25 802.77 64.03 803.86 64.89 803.88 64.49 802.59 64.28 801.5 64.31 800.34 64.63 799.77 65.19 799.24 65.62 799.91 65.9 801.08 65.65 801.92 66.04 802.56 66.39 803.37 66.69 804.05 67.24 804.66 67.57 804.9 68.93 805.57 69.55 805.75 69.91 805.72 70.54 805.31 71.3 805.08 71.35 804.87 71.36 804.58 71.33 804.34 71.3 804.27 71.43 804.05 71.49 803.9 71.5 802.52 71.36 801.96 71.18 801.36 70.79 800.73 70.58 800.06 70.94 799.71 71.78 799.88 72.17 799.6 73.08 799.57 73.79 799.6 74.42 799.57 74.92 799.25 75.76 798.76 76.5 798.83 77.04 799.3 77.43 800.02 77.73 800.44 78.14 800.54 78.86 800.34 78.52 800.94 78.2 801.74 78.24 802.43 79 802.73 79.45 802.78 80.22 802.96 80.7 802.97 81.68 802.76 82.12 802.73 83.05 802.52 83.72 801.99 84.07 801.3 84.06 800.63 83.82 800.14 83.39 799.49 82.84 798.95 82.26 798.78 82.26 798.55 83.04 798.55 83.04 798.26 82.54 798.16 82.3 797.9 82.3 797.56 82.5 797.22 82.1 797.12 81.97 796.88 82.04 796.56 82.26 796.18 81.92 796.11 81.76 796.01 81.72 795.79 81.74 795.4 82.41 795.67 82.94 795.45 83.42 795.06 83.94 794.85 84.18 794.82 84.52 794.73 84.74 794.57 84.6 794.36 84.28 794.3 83.66 794.59 83.32 794.59 82.75 794.24 82.9 793.96 83.32 793.71 83.56 793.45 83.82 793.54 84.44 793.66 85.13 793.71 85.66 793.58 85.82 793.83 86.08 794.14 86.16 794.36 86.44 794.36 86.07 793.54 84.67 793.19 85.12 792.51 85.71 792.2 86.26 792.13 86.77 792 87.22 791.47 87.59 791.62 87.89 791.79 88.12 792 88.24 792.28 88.45 791.39 87.63 791.11 86.47 791.28 85.66 791.73 85.45 791.16 85.42 790.33 85.63 789.54 86.16 789.13 86.68 789.19 87.03 789.5 87.34 789.88 87.74 790.17 88.17 790.3 88.3 790.23 88.34 790 88.52 789.65 88.87 789.3 89.04 789.18 89.07 789.03 89.04 788.61 88.91 788.4 88.39 788.26 88.24 788.09 88.25 787.89 88.46 787.76 88.64 787.26 88.84 787.19 88.94 787.11 88.78 786.76 88.53 786.62 88.22 786.64 87.93 786.59 87.74 786.24 87.69 786.51 87.63 786.58 87.63 786.6 87.74 786.76 87.33 787.01 86.91 787.09 86.57 786.96 86.44 786.52 85.49 787.38 85.12 787.57 85.19 787.11 86.59 785.43 87.45 784.19 88.01 783.6 90.91 781.15 91.67 779.74 92.12 778.91 92.68 778.74 93.3 779 93.42 778.62 93.46 778.29 93.56 777.9 93.83 777.89 94.17 777.98 94.41 777.75 94.19 777.36 93.6 777.09 93.02 777.28 92.16 777.38 92.04 777.04 92.5 776.45 93.43 775.65 94.07 775.26 94.97 774.92 94.48 774.48 94.53 773.7 94.83 773.28 95.25 772.84 95.71 772.57 96.08 772.65 96.71 772.49 97.25 772.42 97.42 772.31 98.16 771.64 99.02 773.23 99.58 773.86 100.53 774.22 100.35 773.79 99.09 772.27 98.75 771.71 98.69 771.09 98.87 770.49 99.23 770.03 99.36 770.35 99.62 770.71 99.87 770.89 99.98 770.72 99.91 770.43 99.57 769.94 99.49 769.79 99.68 769.02 100.04 768.37 100.25 767.71 99.98 766.9 100.38 766.88 100.76 766.9 100.64 767.09 100.57 767.28 100.54 767.52 100.53 767.82 100.63 768.1 100.87 768.11 101.24 767.86 101.9 767.92 102.08 768.01 102.42 768.35 102.61 768.46 102.56 768.1 102.41 767.81 102.17 767.6 101.83 767.45 101.99 767.36 102.17 767.24 102.32 767.16 101.61 766.91 101.29 766.9 101.44 766.54 101.59 766.45 101.78 766.51 102.09 766.67 102.2 766.1 101.66 765.9 100.88 765.95 100.27 766.12 100.42 765.53 100.85 765.44 101.44 765.56 102.09 765.6 101.89 765.5 101.49 765.22 101.29 765.1 101.5 765.02 101.63 764.93 101.78 764.86 102.09 764.82 101.97 764.66 101.83 764.27 102.59 764.11 103.39 764.04 103.39 764.27 103.2 764.62 103.58 764.62 104.69 764.27 104.15 764.14 104.02 763.88 104.19 763.53 104.87 762.73 105.11 762.26 105.47 761.15 105.9 761.46 106.21 761.54 106.51 761.4 106.91 761.03 107.33 760.87 107.92 760.72 108.17 760.56 107.57 760.37 107.06 760.44 106.56 760.63 106.17 760.59 106.01 760 106.28 759.91 106.87 759.8 107.5 759.55 107.86 759.06 107.2 759.15 105.61 759.58 105.1 759.34 104.94 758.75 105.02 758.06 105.23 757.5 106.3 758.27 106.87 758.46 107.71 758.52 107.89 758.44 107.79 758.27 107.52 758.1 107.17 758.02 106.76 758.02 106.45 757.99 106.2 757.84 106.01 757.5 106.64 757.55 107.17 757.45 107.58 757.17 107.86 756.72 107.26 756.35 106.9 755.89 106.94 755.38 107.57 754.87 107.87 755.08 108.04 755.28 108.11 755.54 108.09 755.94 108.65 755.39 108.41 754.61 108.31 753.9 110.06 753.32 110.53 752.69 110.92 751.98 111.47 751.49 111.47 751.25 109.13 751.75 109.13 751.49 109.39 751.4 109.65 751.25 108.69 751.26 108.25 751.18 107.86 750.96 107.98 752.62 105.77 753.88 103.03 754.35 101.57 753.59 101.64 753.24 102.19 752.94 102.32 752.65 102.19 752.5 101.53 752.17 101.06 751.87 100.9 751.86 100.8 751.77 100.76 751.36 100.8 751.04 100.9 750.76 101.05 750.44 101.24 749.45 101.44 749.11 101.83 748.88 102.37 748.79 102.74 748.92 102.77 749.21 102.32 749.64 104.14 749.34 104.69 749.14 104.69 748.88 103.39 749.14 103.56 748.66 103.83 748.23 104.85 747.03 105.47 745.7 105.06 745.72 104.87 745.67 104.79 745.52 104.69 745.21 104.11 745.34 103.66 745.01 103.2 744.52 102.61 744.14 102.77 744.51 102.83 744.93 102.77 745.34 102.61 745.7 102.28 745.52 101.95 745.47 101.61 745.53 101.29 745.7 101.29 745.99 101.47 746.15 101.48 746.17 101.4 746.24 101.29 746.53 101.11 746.37 101 746.33 100.84 746.32 100.53 746.25 100.64 746.97 100.53 748.02 100.25 748.98 99.86 749.4 99.73 749.63 99.6 750.68 99.49 750.96 98.88 751.02 98.4 750.7 98.21 750.18 98.45 749.64 96.49 748.1 96.27 747.79 96.1 747.15 96.28 746.59 97.12 746.53 96.68 745.98 96.53 745.7 96.25 744.67 96.11 743.5 96.1 742.35 96.19 741.82 96.42 741.39 96.86 741.01 97.39 740.89 97.91 740.96 98.29 740.88 98.45 740.37 98.6 740.11 98.96 739.83 99.42 739.7 99.86 739.85 100.49 740.61 100.75 740.68 101.29 740.52 101.97 740.11 102.58 739.54 103.67 738.14 100.45 738.11 99.86 738.01 99.33 737.36 97.93 735.02 99 733.49 99.23 732.91 99.53 731.26 99.91 730.68 100.76 730.28 100.76 730.02 99.98 730.28 100.09 729.2 100.5 727.4 100.53 722.17 100.65 722.52 100.8 722.8 101.01 723.03 101.29 723.24 101.46 722.85 101.57 722.23 101.44 721.65 100.53 721.17 100.4 720.67 100.37 720.06 100.27 719.54 101.12 719.66 101.79 720.13 102.28 720.76 102.61 721.39 102.84 721.39 102.4 720.17 100.78 718.21 100.53 716.93 100.35 717 99.9 717.13 99.72 717.21 99.4 715.65 98.94 710.75 98.71 710.12 98.47 704.38 98.66 703.08 99 701.84 99.49 700.72 98.94 700.39 98.9 699.56 98.99 698.71 98.83 698.33 98.47 698.01 98.27 697.27 98.16 695.74 97.6 695.92 97.26 695.75 97.11 695.32 97.12 694.67 97.38 694.67 97.56 694.85 97.69 694.94 97.87 694.9 98.16 694.67 97.77 694.42 97.62 694.07 97.34 692.89 97.38 692.76 97.35 692.6 97.12 692.32 96.95 692.25 96.32 692.15 96.08 692.06 95.65 691.65 95.39 691.25 95.07 690.92 94.53 690.75 93.98 690.75 93.58 690.87 93.33 691.13 93.23 691.54 92.77 691.13 92.32 691.16 91.93 691.3 91.64 691.27 91.38 690.85 91.47 690.51 91.81 690.29 92.3 690.21 92.63 689.81 93.53 687.93 93.98 687.34 94.32 687.23 95.17 687.17 95.54 687.08 96 686.75 96.33 686.41 96.7 686.15 97.25 686.05 97.93 686.25 98.5 686.62 99.13 686.84 99.98 686.55 100.23 686.32 100.32 686.09 100.37 685.82 100.53 685.51 100.56 685.34 100.5 684.9 100.53 684.73 100.7 684.68 100.95 684.73 101.18 684.74 101.29 684.61 101.46 684.19 101.88 683.86 102.37 683.56 102.73 683.28 102.98 682.89 103.17 682.46 103.31 682 103.39 681.56 103.29 679.97 102.71 678.62 101.16 676.11 101.02 675.98 100.76 675.79 100.73 674.95 99.23 670.83 98.94 670.83 98.94 671.87 98.71 671.87 98.09 670.2 97.12 668.69 94.78 665.84 94.37 665.16 94.23 664.6 94.26 663.08 94.53 661.72 94.56 661.05 94.26 660.56 94.53 660.32 95.95 661.51 96.86 662.67 97.25 662.4 97.63 661.74 98.16 660.32 98.29 659.6 98.33 658.93 98.28 658.36 98.16 657.94 97.47 656.98 97.57 656.67 98.45 656.35 98.55 656.59 98.67 656.7 98.81 656.77 98.94 656.9 99.1 656.31 98.97 655.77 98.63 655.34 98.16 655.07 98.16 654.8 98.74 653.83 98.93 653.21 98.94 652.43 99.44 651.85 99.61 651 99.52 650.14 99.23 649.55 97.93 648.5 97.66 648.21 97.48 647.94 97.26 647.69 96.86 647.45 96.88 647.03 97.08 646.23 97.12 645.74 97.01 645.25 96.73 645.06 96.35 644.95 95.06 644.22 94.16 644.43 93.42 645.01 92.97 645.6 93.12 645.86 93.23 646.12 92.92 646.18 92.71 646.26 92.42 646.41 92.19 646.41 92.18 645.44 92.24 644.98 92.42 644.55 90.84 641.14 90.08 640.1 88.99 639.03 88.45 638.67 87.44 638.43 87.28 638.23 87.12 638.12 86.68 638.27 86.55 638.49 86.56 638.8 86.5 639.11 86.16 639.29 85.97 636.64 86.31 635.53 87.36 635.08 87.82 634.4 87.35 632.91 86.16 630.65 85.9 630.65 86.14 631.1 86.26 631.25 86.44 631.41 86.44 631.7 86.16 631.7 85.51 630.8 82.71 627.8 82.3 627.56 81.61 627.48 81.23 627.26 81 626.78 80.7 626.32 80.16 626.15 80.42 625.91 79.93 625.76 79.49 625.41 78.86 624.58 78.56 624.49 78.56 624.49 80.11 619.49 81.44 615.22 82.35 615.42 83.19 615.29 83.92 614.85 84.48 614.14 84.83 613.15 84.71 612.33 83.85 610.65 83.51 609.46 83.33 607.83 83.57 606.41 84.48 605.91 84.88 606.12 86.78 607.75 87.15 608.17 87.14 608.27 86.98 608.62 86.98 608.76 87.09 608.86 87.41 608.94 87.51 609.01 88.57 610.45 88.86 610.96 89.32 612.88 89.72 613.32 90.59 613.23 91.54 612.46 93.28 610.7 98.62 607.37 99.73 606.36 99.5 605.65 98.71 604.9 98.2 603.77 98.33 603.31 99.45 601.88 100.42 599.68 101.23 598.87 102.4 598.25 103.68 597.83 104.82 597.58 106.23 597.6 106.45 597.44 106.16 596.84 105.78 596.44 105.38 596.15 105.01 595.8 104.76 595.24 104.69 594.31 103.87 591.31 102.77 589.18 102.41 588.65 101.43 587.2 100.6 585.46 100.32 585.06 99.83 584.85 99.32 584.82 98.84 584.64 98.42 583.98 98.09 582.61 97.77 579.97 97.22 578.62 96.59 577.55 96.19 577.21 95.55 577 94.41 577.11 94.06 576.88 94.06 576 94.38 574.86 94.8 574.41 95.87 573.26 96.33 572.3 96.29 571.62 96.11 571.22 96.14 570.93 96.77 570.54 97.38 570.4 98 570.34 98.39 570.06 98.45 569.52 98.46 569.35 98.53 569.24 98.62 569.14 98.71 569 99.28 569.35 99.67 570.77 100.13 571.5 100.59 571.96 100.98 572.44 101.29 573.01 101.57 573.73 101.89 575.22 102.21 576.03 104.69 577.72 106.61 578.5 107.17 578.9 107.58 579.39 110.66 584.48 111.47 585.1 111.99 585.2 113.06 585.21 113.22 585.25 113.57 585.34 113.81 584.85 114.11 584.85 114.34 585.24 114.33 585.87 114.09 585.87 113.97 585.75 113.81 585.63 113.81 586.59 114.07 587.27 114.54 587.52 115.13 587.21 115.13 587.99 115.65 587.44 115.81 587.84 115.44 588.46 115.39 589.04 115.22 588.97 114.78 588.85 114.61 588.78 114.86 590.15 115.78 590.72 116.64 590.6 116.72 589.85 119.06 589.85 118.82 590.19 118.62 590.57 118.5 590.99 118.51 591.43 118.8 591.43 118.93 591.32 119.32 591.14 119.32 591.43 117.99 591.93 117.99 592.19 118.33 592.25 118.56 592.35 118.87 592.7 118.83 592.77 118.83 592.88 118.8 593 118.63 592.82 118.41 592.71 118.12 592.67 117.75 592.72 118.07 593.05 118.44 593.3 118.8 593.58 119.06 594.05 118.1 593.6 117.07 593.32 116.18 593.41 115.65 594.05 115.64 594.22 115.69 594.26 115.78 594.26 115.89 594.29 115.19 596.47 116.21 597.81 118.24 598.46 120.61 598.52 121.06 598.44 121.52 598.28 121.91 598.04 122.17 597.73 122.3 597.39 122.28 597.16 122.22 596.93 122.17 596.56 122.26 596.25 122.61 595.86 122.69 595.5 122.93 593.13 122.87 592.05 122.41 591.14 122.31 591.45 122.28 591.64 122.31 591.85 122.41 592.19 122.17 592.19 121.98 591.58 121.84 590.69 121.83 589.8 122.27 588.51 122.12 587.68 121.63 586.42 121.42 585.16 121.42 579.79 121.24 579.07 120.74 578.77 120.2 578.56 119.96 578.02 119.82 577.33 119.58 576.67 118.81 575.85 117.62 575.04 116.23 574.38 115.13 574.26 115.13 574.54 114.68 574.12 115.3 573.15 116.23 572.04 116.72 571.23 120.48 570.05 121.4 569.98 125.11 568.92 125.61 568.65 125.81 568.33 125.82 567.91 125.88 567.47 126.04 567.09 126.36 566.87 126.36 566.63 126.1 566.63 126.1 566.34 126.82 566.22 129.41 565.26 129.92 564.91 131.6 563.2 133.57 561.83 134.44 561.06 134.44 560.82 134.16 560.36 134.49 560.05 136.8 559.48 137.7 558.95 138.41 558.87 138.73 558.62 138.93 558.25 139.27 557.77 140.68 556.75 140.99 556.32 140.65 554.98 141.04 553.88 141.78 553 143.06 551.86 143.41 551.4 143.64 550.83 144.09 547.63 144.34 547.08 144.56 547.04 145.63 546.63 145.79 546.53 146.29 546.36 146.46 545.95 146.44 545.24 146.52 544.57 146.67 544.2 147.09 543.76 147.45 543.5 147.77 543.35 149.32 542.85 150.54 542.48 151.62 541.85 152.52 541.09 152.61 540.14 152.88 539.61 153.74 539.7 154.17 540.09 155.41 540.02 156.73 539.77 157.65 539.39 157.94 539.5 158.23 539.69 158.43 540.01 158.43 540.48 157.9 540.24 157.34 540.17 156.81 540.31 156.35 540.71 156.65 540.92 156.88 540.99 157.11 540.92 157.41 540.71 157.63 540.94 157.78 541.05 157.87 541.18 157.91 541.5 159.08 540.7 159.8 540.34 160.67 540.18 161.53 540.33 162.23 540.53 162.27 540.53 163.21 540.79 163.74 540.41 165.19 539.14 166.1 537.37 166.84 534.92 166.87 532.64 166.46 531.58 165.99 531.02 165.72 530.78 165.29 530.01 164.69 530.01 164.17 529.62 163.77 529.39 163 529.42 162.5 529.63 162.06 529.95 161.97 529.57 164.1 527.41 164.45 526.38 165.1 524.25 165.07 523.36 165.31 522.53 165.8 521.47 166.22 520.17 166.37 519.39 166.36 518.59 166.88 516.38 166.97 515.14 166.41 513.81 166.38 513.04 166.59 512.75 166.73 512.62 167.03 512.56 167.29 512.41 167.43 512.2 167.83 511.34 168.1 510.94 168.22 510.71 168.35 510.28 168.4 509.84 168.4 509.45 168.43 509.08 168.61 508.69 167.39 509.37 165.82 510.42 164.31 512.03 162.74 512.92 162.03 512.8 162.59 511.51 163.68 510.88 164.21 510.52 164.54 510.13 164.8 509.75 165.01 509.27 165.35 508.81 165.45 508.38 165.3 507.9 165.4 507.58 166.27 507.61 166.07 507.29 166 506.95 166.07 506.62 166.27 506.29 166.59 507.08 167.37 506.9 168.74 506.03 169.18 505.66 169.16 504.79 168.95 503.75 168.87 502.86 168.61 502.86 168.29 503.06 168.09 502.8 167.83 501.78 167.57 501.78 167.46 502.15 167.34 502.38 167.14 502.52 166.79 502.59 166.94 502.26 167.14 501.55 167.29 501.25 167.52 501.02 167.99 500.81 168.24 500.6 169.32 499.37 169.68 499.13 169.48 499.78 169.07 500.58 168.94 501.25 169.53 501.54 170.04 501.19 170.27 500.36 170.3 499.39 170.19 498.6 170.04 498.44 169.77 498.37 169.39 498.34 169.41 498.11 169.62 497.62 169.68 497.52 169.61 497.08 169.61 496.66 169.47 496.35 169 496.22 168.85 496.06 169.03 495.69 169.41 495.33 169.79 495.17 170.24 495.11 170.71 494.94 171.16 494.68 171.5 494.35 171.5 494.15 171.21 493.76 171.24 493.58 171.36 493.5 171.65 493.39 171.76 493.31 172.08 493.15 172.41 493.18 172.67 493.11 172.77 492.64 172.91 492.63 173.21 492.28 173.45 491.88 173.44 491.68 173.68 491.61 174.62 491.18 177.12 490.54 177.5 490.24 177.87 489.61 178.17 489.25 178.4 489.19 178.58 489.3 178.8 489.37 178.98 489.47 179.06 489.71 178.98 489.86 178.84 489.97 178.81 490.12 179.06 490.38 179.06 490.55 179.06 490.65 179.32 490.65 179.54 490.34 180.36 489.56 180.2 489.25 180.11 488.97 180.07 488.66 180.07 488.26 179.48 488.78 179.32 489.06 178.54 488.62 178.33 487.89 178.64 487.21 180 486.75 180.61 486 181.02 485.83 181.45 485.8 181.88 485.69 182.29 485.53 184.71 483.92 186.16 483.56 186.93 483.11 187.45 482.51 187.4 481.89 187.57 481.5 187.76 480.62 187.92 480.27 188.28 480.04 188.8 479.81 189.5 479.77 190.23 479.48 190.72 478.91 191.65 478.17 191.73 477.51 192.8 477.51 194.09 477.38 194.71 476.87 194.64 476.16 194.6 475.48 194.52 475.27 194.74 475.02 195.7 475.48 196.56 475.77 198.6 476.46 202.32 478 205.1 478.94 206.98 479.44 208.95 479.68 211.53 479.94 214.05 479.78 215.55 479.61 215 480.02 213.12 480.38 209.45 480.27 209 480.21 208.59 480.1 208.18 480.07 207.75 480.27 207.64 480.61 207.68 481.06 207.66 481.45 207.34 481.62 207.19 482.12 207.61 483.24 208.55 485.06 207.96 484.75 207.41 484.15 206.9 483.8 206.47 484.25 206.2 483.88 205.3 483.88 204.76 483.62 204.46 483.75 204.16 484.4 203.94 485.19 203.85 485.71 203.81 486.89 203.87 487.46 204.11 487.73 204.63 487.54 204.86 486.93 205.03 486.25 205.41 485.83 205.41 486.24 205.54 486.51 205.8 486.66 206.19 486.68 206.12 487.06 206.19 488.5 206.77 488.77 207.39 488.74 207.87 488.4 208.03 487.73 207.6 487.97 207.26 487.88 207.04 487.51 206.97 486.92 207.12 486.41 207.42 486.06 207.62 485.74 207.49 485.31 208.25 485.44 208.73 485.96 208.98 486.73 209.16 488.6 209.51 489.05 210.08 489.13 211.58 489.05 211.85 488.99 212.21 488.79 212.94 488.09 213.1 487.98 213.19 487.62 214.29 485.59 214.33 485.32 214.29 484.25 214.72 483.4 214.79 483.08 214.91 482.88 215.45 482.25 215.57 482.02 215.85 480.54 216.22 479.68 218.59 476.21 218.71 475.9 218.6 475.44 218.07 474.79 217.91 474.42 217.92 474 218.14 473.34 218.19 472.96 218.12 472.58 217.78 471.88 217.67 471.51 217.74 471.35 218.11 471.02 218.19 470.83 218.15 470.61 218.05 470.5 217.95 470.43 217.91 470.33 218 469.92 218.21 469.54 218.71 468.84 218.91 468.61 219.09 468.5 219.21 468.33 219.26 467.92 219.75 466.98 220.35 466.93 220.84 467.05 221.11 466.87 221.05 465.94 221.34 465.94 221.36 466.19 221.42 466.36 221.6 466.71 222 466.17 222.09 465.94 222.22 466.02 222.27 466.02 222.3 466.04 222.38 466.18 222.61 466.18 222.61 465.39 222.99 465.7 223.28 466.3 223.7 466.45 224.07 466.26 224.24 465.86 224.4 465.63 224.72 465.94 225 465.94 225.07 465.66 225.22 465.51 225.45 465.45 225.75 465.39 226.72 465.49 227.45 465.78 228.09 466.24 228.76 466.85 229.04 466.96 230.78 467.34 232.02 468.06 233.52 468.54 238.12 468.87 242.41 468.53 243.43 468.53 249.64 468.52 253.84 467.87 254.21 467.65 254.45 467.32 255.61 466.44 256.59 465.89 256.78 465.74 257.07 465.39 257.52 464.47 257.71 464.33 258.15 464.19 258.48 463.87 259.02 463.12 259.44 462.76 260.71 462.18 262.88 460.1 267.48 457.66 274.12 452.21 274.82 451.79 276.21 451.3 278.52 450.8 279.12 450.52 280.27 449.69 281.06 449.92 281.86 449.5 282.7 448.92 283.56 448.62 285.83 448.54 286.54 448.36 287.14 448.01 288.12 447.19 289.35 446.88 291 445.68 293.03 444.86 293.5 444.25 294.2 443.55 294.36 443.14 294.43 442.8 294.9 441.4 296.27 439.26 296.65 437.96 297.5 436.82 297.76 436.35 297.82 435.59 297.67 433.4 297.5 432.6 297.29 432.31 296.93 431.99 296.6 431.79 296.46 431.81 296.55 431.3 296.88 430.96 297.76 430.45 298.95 430.88 302.86 430.19 304.2 430.49 304.05 431.21 302.47 432.87 303.04 433.17 303.62 434.16 304.29 434.46 305.42 433.94 305.61 433.81 305.71 433.31 305.96 432.87 306.3 432.53 306.65 432.34 307.14 432.31 307.66 432.37 308.07 432.31 308.23 431.94 308.08 431.54 307.81 431.19 307.67 430.84 307.95 430.45 307.56 430.15 307.36 429.86 307.13 429.61 306.65 429.41 306.15 429.37 305.68 429.44 305.3 429.64 305.07 429.95 304.83 429.95 304.55 429.41 306.29 428.21 307.69 426.99 307.78 426.81 307.94 426.3 308.09 426.19 308.77 426.23 308.97 426.19 309.55 425.77 309.86 425.7 310.31 425.93 309.64 426.27 309.13 426.72 309.01 427.25 309.51 427.82 309.79 427.97 309.98 427.99 310.55 427.82 310.59 427.71 310.54 427.52 310.53 427.34 310.68 427.26 311.21 427.29 311.35 427.26 312.05 426.88 312.52 426.55 312.79 426.1 312.91 425.4 312.81 425.34 312.61 425.31 312.49 425.2 312.63 424.87 312.88 424.62 313.23 424.44 313.6 424.34 313.95 424.31 313.71 425 313.94 425.35 314.3 425.65 314.47 426.19 314.71 426.19 314.81 426.05 314.96 425.78 315.02 425.51 314.85 425.4 314.59 425.3 314.78 425.1 315.11 424.91 315.25 424.87 315.7 424.62 316.22 424.45 316.72 424.22 317.09 423.77 316.62 423.83 316.22 424.01 315.9 424.21 315.65 424.31 315.26 424.18 315.33 423.88 315.66 423.53 316.03 423.27 315.6 423.27 315.22 423.35 314.92 423.51 314.71 423.77 314.77 423.15 314.83 422.93 314.99 422.71 314.49 423.04 313.49 423.93 313.15 424.31 312.91 424.06 313.3 423.36 313.87 422.75 314.57 422.33 315.39 422.18 316.13 422.3 316.13 422.3"/></clipPath></defs><g id="Layer_2" data-name="Layer 2"><g id="Layer_1-2" data-name="Layer 1"><path class="cls-2" d="M469,29.54c0,11-7.39,18.14-18.59,18.14-11.65,0-18.88-7.19-18.88-18.59,0-10.74,7.38-17.7,18.73-17.7C461.85,11.39,469,18.35,469,29.54Zm-30.77-.23c0,8.15,4.8,13.55,12,13.55s12-5.18,12-13.25c0-3.85-.77-6.44-2.52-8.81a11.24,11.24,0,0,0-9.44-4.59C443.11,16.21,438.24,21.54,438.24,29.31Z"/><path class="cls-2" d="M485.44,19.09c1.37-4.89,5.88-7.64,12.37-7.64,8.25,0,12.84,3.86,12.84,10.83v20h6.16v4.35h-19V42.3h6.73V24.54a8.28,8.28,0,0,0-8.11-8.23C490,16.17,486,20.42,486,27.19V42.3h6.16v4.35h-19.6V42.3h6.72V16.7h-6.72V12.34h12.88Z"/><path class="cls-2" d="M555.13,35.76a11.72,11.72,0,0,1-2,5c-2.85,4.05-7.52,6.11-14.1,6.11-7.09,0-11.62-2-14.91-6.53A17.34,17.34,0,0,1,521,29.86C521,18.71,527.65,12,538.69,12c8.62,0,14.1,3.7,16.07,10.66.73,2.63.88,4,.88,8.17H527.29c.22,6.89,4.89,11.36,12.05,11.36,5.41,0,9.28-2.41,10.23-6.46Zm-5.31-9.26c-.38-6.37-4.49-10.22-11-10.22S528,20.06,527.05,26.5Z"/><path class="cls-2" d="M81.5,29.54c0,11-7.39,18.14-18.58,18.14C51.26,47.68,44,40.49,44,29.09c0-10.74,7.39-17.7,18.74-17.7C74.34,11.39,81.5,18.35,81.5,29.54Zm-30.77-.23c0,8.15,4.8,13.55,12,13.55s12-5.18,12-13.25c0-3.85-.76-6.44-2.51-8.81a11.27,11.27,0,0,0-9.45-4.59C55.61,16.21,50.73,21.54,50.73,29.31Z"/><path class="cls-2" d="M98.29,20c.75-5.11,5.17-8.59,11.08-8.59a13.36,13.36,0,0,1,2.93.37v5.5a5.09,5.09,0,0,0-3.51-1.11,10,10,0,0,0-7.15,2.89c-2.28,2.22-3.35,5.47-3.35,9.91V42.3h7.84v4.35H85.41V42.3h6.72V16.7H85.41V12.34H98.29Z"/><path class="cls-2" d="M129.1,20c.75-5.11,5.17-8.59,11.08-8.59a13.36,13.36,0,0,1,2.93.37v5.5a5.09,5.09,0,0,0-3.51-1.11,10,10,0,0,0-7.15,2.89c-2.28,2.22-3.35,5.47-3.35,9.91V42.3h7.84v4.35H116.22V42.3h6.72V16.7h-6.72V12.34H129.1Z"/><path class="cls-2" d="M180.49,35.76a11.7,11.7,0,0,1-2,5c-2.85,4.05-7.53,6.11-14.1,6.11-7.09,0-11.62-2-14.91-6.53a17.27,17.27,0,0,1-3.14-10.45C146.37,18.71,153,12,164.05,12c8.62,0,14.1,3.7,16.08,10.66.73,2.63.87,4,.87,8.17H152.65c.22,6.89,4.9,11.36,12.06,11.36,5.41,0,9.28-2.41,10.23-6.46Zm-5.3-9.26c-.38-6.37-4.5-10.22-11.05-10.22s-10.81,3.78-11.73,10.22Z"/><path class="cls-2" d="M197.44,42.3h6.17v4.35H184.56V42.3h6.16v-37h-6.16V.36h12.88Z"/><path class="cls-2" d="M208.88,22.15c.91-7.41,5.78-10.81,15.59-10.81q8.44,0,12.1,3.55c2.2,2.15,2.89,4.52,2.89,9.77V42.3h6.72v4.35H233.86V39.47c-2.16,5.63-6.48,8.07-13.93,8.07-8.64,0-13.68-3.85-13.68-10.51,0-4.52,2.32-7.78,6.72-9.63,2.72-1.11,6.88-1.63,13.36-1.63,1,0,2.65,0,7,.15v-1.4c.07-3.71-.46-5.19-2.06-6.52-1.44-1.26-3.73-1.85-6.69-1.85-5.63,0-8.67,2.07-9.05,6Zm18.25,8.2c-5.41,0-8.22.52-10.2,1.78a5.56,5.56,0,0,0-2.67,4.81c0,3.63,2.89,5.92,7.46,5.92,4,0,7.24-1.33,9.22-3.85,1.45-1.85,2.06-3.77,2.51-8.51C231.24,30.35,229.8,30.35,227.13,30.35Z"/><path class="cls-2" d="M258.5,36.86c0,2.49.15,3.45.88,4.25a3.72,3.72,0,0,0,2.94,1.32,3.45,3.45,0,0,0,3.45-2.34,14.92,14.92,0,0,0,.51-4.33h4.77c0,4.18-.29,5.87-1.4,7.62-1.68,2.57-4.4,3.82-8.28,3.82a9.52,9.52,0,0,1-6.17-1.91c-2.12-1.76-2.86-4-2.86-8.5V16.7h-7.28V12.34h7.28V2.22L258.5,0V12.34h11.77V16.7H258.5Z"/><path class="cls-2" d="M288.19,42.3h5.61v4.35H275.31V42.3h6.16V17.24h-6.16v-4.9h12.88Z"/><path class="cls-2" d="M335.52,29.54c0,11-7.39,18.14-18.59,18.14-11.65,0-18.89-7.19-18.89-18.59,0-10.74,7.39-17.7,18.74-17.7C328.36,11.39,335.52,18.35,335.52,29.54Zm-30.78-.23c0,8.15,4.8,13.55,12,13.55s12-5.18,12-13.25c0-3.85-.76-6.44-2.51-8.81a11.25,11.25,0,0,0-9.44-4.59C309.62,16.21,304.74,21.54,304.74,29.31Z"/><path class="cls-2" d="M352.06,19.09c1.37-4.89,5.88-7.64,12.37-7.64,8.25,0,12.83,3.86,12.83,10.83v20h6.17v4.35H364.38V42.3h6.16V24.54a8.28,8.28,0,0,0-8.1-8.23c-6.36-.14-10.38,4.11-10.38,10.88V42.3h6.72v4.35H339.17V42.3h6.72V16.7h-6.72V12.34h12.89Z"/><path class="cls-2" d="M32.67,35.8c-1.8,4.45-5.68,7.1-10.9,7.1A11.23,11.23,0,0,1,11,35.8a16.62,16.62,0,0,1-1.2-6.44,14.77,14.77,0,0,1,1.7-7.16,11.4,11.4,0,0,1,10.4-5.94,11.26,11.26,0,0,1,9.43,4.59,11.85,11.85,0,0,1,1.39,2.45l6.92,0c-2.32-7.71-9.08-11.82-17.82-11.82s-15,4-17.52,10.74a19.62,19.62,0,0,0-1.2,6.94A22.23,22.23,0,0,0,4,35.8c2.32,7.45,8.75,11.9,17.91,11.9,8.9,0,15.38-4.54,17.67-11.9Z"/><ellipse class="cls-2" cx="410.09" cy="29.62" rx="4.66" ry="4.53"/><ellipse class="cls-2" cx="421.96" cy="18.04" rx="4.66" ry="4.53"/><ellipse class="cls-2" cx="398.22" cy="41.07" rx="4.66" ry="4.53"/><text class="cls-3" transform="translate(55.07 1178.12) scale(0.99 1)">C<tspan class="cls-4" x="56.22" y="0">O</tspan><tspan class="cls-5" x="119.97" y="0">L</tspan><tspan class="cls-4" x="166.78" y="0">OMBI</tspan><tspan class="cls-6" x="402.99" y="0">A</tspan></text><path class="cls-7" d="M110.63,312.25a86.28,86.28,0,0,0,23.45-3.44,62.58,62.58,0,0,0,20.72-10.33,51.77,51.77,0,0,0,14.69-17.76Q175,270,174.92,255.17q-.13-15.88-5.93-26.66a47.64,47.64,0,0,0-15.14-17.13,61.49,61.49,0,0,0-21.28-9,106.12,106.12,0,0,0-24.16-2.6l-41.75.33.91,112.52Zm-2.69-89.31a60.88,60.88,0,0,1,14,1.49A34.3,34.3,0,0,1,134,229.66a26.85,26.85,0,0,1,8.57,9.94q3.22,6.26,3.3,15.79t-3,15.76a27.25,27.25,0,0,1-8.4,10.24A34.48,34.48,0,0,1,122.24,287a61.87,61.87,0,0,1-14.41,1.78l-13.22.1-.53-65.8Z"/><path class="cls-7" d="M214.34,289.36,259,289l9.15,22,31-.24L250.3,198.64l-27.07.21L175.7,311.75l30.33-.24Zm22.18-60.57,14.66,38.51-29,.22Z"/><polygon class="cls-7" points="319.8 221.31 320.52 310.63 348.41 310.42 347.69 221.1 380.31 220.85 380.12 197.64 287 198.36 287.18 221.56 319.8 221.31"/><path class="cls-7" d="M417.31,197.36l-47.53,112.9,30.33-.24,8.31-22.16,44.68-.34,9.15,22,31-.23L444.38,197.15ZM416.23,266,430.6,227.3l14.66,38.51Z"/><path class="cls-7" d="M90.06,387.56a9.19,9.19,0,0,1-3,1.25,17,17,0,0,1-3.58.41,18.46,18.46,0,0,1-8.21-2,19.9,19.9,0,0,1-6.68-5L57.77,393.1a30.22,30.22,0,0,0,11.5,7,41.38,41.38,0,0,0,14.27,2.4,36.74,36.74,0,0,0,9.78-1.4,25.36,25.36,0,0,0,8.4-4.13,20,20,0,0,0,5.81-7,21.38,21.38,0,0,0,2.1-10,15.87,15.87,0,0,0-2.11-8.35,19.32,19.32,0,0,0-5.18-5.58,27.43,27.43,0,0,0-6.91-3.58q-3.8-1.33-7.29-2.45c-1.62-.49-3.08-1-4.38-1.43a18.78,18.78,0,0,1-3.35-1.53,6.35,6.35,0,0,1-2.15-2,5.15,5.15,0,0,1-.75-2.83,5.39,5.39,0,0,1,.89-3.26,7.43,7.43,0,0,1,2.26-2.1,8.89,8.89,0,0,1,3-1.11,20.15,20.15,0,0,1,3.34-.31,16.19,16.19,0,0,1,6.65,1.51,15,15,0,0,1,5.61,4.16l10.48-10.94a30.65,30.65,0,0,0-10.67-6.06,36.31,36.31,0,0,0-11.89-2,39.49,39.49,0,0,0-9.59,1.25,26.78,26.78,0,0,0-8.5,3.8,19.94,19.94,0,0,0-6,6.57,18.5,18.5,0,0,0-2.25,9.55,17.61,17.61,0,0,0,1.57,7.69,16.69,16.69,0,0,0,4,5.36A21.61,21.61,0,0,0,72.08,370a58.92,58.92,0,0,0,6.46,2.41c2.27.67,4.29,1.3,6.08,1.89a22,22,0,0,1,4.47,1.95,9.25,9.25,0,0,1,2.78,2.39,5.22,5.22,0,0,1,1,3.2,7,7,0,0,1-.75,3.41A6.29,6.29,0,0,1,90.06,387.56Z"/><path class="cls-7" d="M163.57,385.29a18.66,18.66,0,0,1-8.61,2,20.05,20.05,0,0,1-7.87-1.45,18.06,18.06,0,0,1-6.18-4.16,19.25,19.25,0,0,1-4.08-6.44,22.87,22.87,0,0,1-1.52-8.3,22.14,22.14,0,0,1,1.39-8.18,19.41,19.41,0,0,1,4-6.51,19,19,0,0,1,6.22-4.34,20,20,0,0,1,8-1.62,20.71,20.71,0,0,1,7.77,1.45,14,14,0,0,1,6.14,4.58l11.16-11A27.57,27.57,0,0,0,168.54,334a43.47,43.47,0,0,0-28.94.18,35.07,35.07,0,0,0-11.77,7.13A32.27,32.27,0,0,0,120,352.47a38.32,38.32,0,0,0,.18,28.91,33.47,33.47,0,0,0,7.85,11.13,34.7,34.7,0,0,0,11.74,7.14,41.34,41.34,0,0,0,14.71,2.44,37.68,37.68,0,0,0,15.39-3.1,32.71,32.71,0,0,0,11.18-8.16l-11.62-10.49A16.65,16.65,0,0,1,163.57,385.29Z"/><rect class="cls-7" x="187.95" y="333.08" width="16.67" height="66.89" transform="translate(-2.81 1.52) rotate(-0.44)"/><polygon class="cls-7" points="264.65 332.56 218.5 332.91 219.05 399.8 266.94 399.43 266.82 385.63 234.93 385.88 234.82 371.99 263.32 371.77 263.21 358.83 234.71 359.05 234.61 346.39 264.76 346.16 264.65 332.56"/><polygon class="cls-7" points="339.78 331.98 323.69 332.1 324.43 375.74 324.14 375.75 296.25 332.31 277.35 332.46 277.89 399.34 293.98 399.22 293.24 355.48 293.53 355.48 321.51 399.01 340.32 398.86 339.78 331.98"/><path class="cls-7" d="M414.79,389l-11.62-10.49a16.63,16.63,0,0,1-5.87,5,18.61,18.61,0,0,1-8.62,1.95,20,20,0,0,1-7.86-1.45,18.06,18.06,0,0,1-6.19-4.16,19,19,0,0,1-4.07-6.44,23,23,0,0,1-1.53-8.3,22.39,22.39,0,0,1,1.39-8.18,19.45,19.45,0,0,1,4-6.5,18.75,18.75,0,0,1,6.22-4.35,20,20,0,0,1,8-1.62,20.91,20.91,0,0,1,7.77,1.45,14,14,0,0,1,6.15,4.58l11.15-11a27.39,27.39,0,0,0-11.45-7.23,43.35,43.35,0,0,0-28.93.17,35.11,35.11,0,0,0-11.78,7.13,32.54,32.54,0,0,0-7.81,11.16,38.26,38.26,0,0,0,.19,28.91,33.47,33.47,0,0,0,7.85,11.13,34.54,34.54,0,0,0,11.74,7.14,41,41,0,0,0,14.7,2.44,37.62,37.62,0,0,0,15.39-3.1A32.49,32.49,0,0,0,414.79,389Z"/><polygon class="cls-7" points="467.55 331 421.4 331.35 421.94 398.23 469.83 397.87 469.72 384.07 437.83 384.32 437.72 370.43 466.22 370.21 466.11 357.27 437.61 357.49 437.51 344.83 467.66 344.6 467.55 331"/><path class="cls-8" d="M551.4,120.66,0,121.1.67,925.28l551.4-.43ZM11.17,914.76,10.52,131.6l530.38-.42.65,783.16Z"/><polygon class="cls-1" points="316.13 422.3 317.28 422.83 318.11 423 320.88 423 321.65 423.15 322.44 423.52 323.62 424.31 324.14 424.82 324.4 424.99 324.89 425.13 326.26 425.1 326.61 425.26 327.36 425.84 328.14 426.12 329.88 426.46 331.15 427.11 331.89 427.66 332.3 428.32 332.47 428.53 332.64 428.84 332.78 429.59 335.08 433.54 335.34 434.6 336.78 436.75 337.02 437.51 336.79 438.38 336.32 439.21 335.86 439.81 334.84 440.57 332.21 442.02 331.44 442.88 330.89 443.18 330.24 443.42 329.74 443.53 329.56 443.86 328.82 445.94 328.65 446.26 328.65 446.26 328.65 446.26 327.5 446.23 326.82 446.61 325.52 447.73 324 448.38 322.97 448.65 320.74 449.23 318.51 449.82 316.28 450.4 314.05 450.99 311.82 451.57 309.59 452.15 307.36 452.74 305.13 453.32 304.14 453.57 303.4 454.07 302.74 455.02 302.36 455.74 301.22 457.87 300.09 460 298.95 462.13 297.81 464.26 296.68 466.39 295.55 468.51 294.41 470.64 293.27 472.77 292.87 473.27 292.2 473.44 290.79 473.07 290.05 472.99 289.28 473.15 287.17 473.94 285.53 474.01 284.71 474.14 284.03 474.59 283.86 474.94 283.83 475.68 283.72 476.06 283.43 476.47 282.71 477.25 282.4 477.69 281.09 480.93 280.41 481.88 279.7 482.56 278.04 483.73 277.04 484.88 276.16 486.6 274.32 491.88 273.29 493.57 270.94 496.31 270.24 498.34 269.71 499.06 269.08 499.7 268.49 500.5 268.21 501.25 268.19 501.44 268.16 501.99 268.18 502.75 267.42 511.23 265.44 518.02 265.43 519.53 265.11 521.04 265.08 521.84 265.33 522.83 265.67 523.55 265.82 524.26 265.52 525.26 264.32 527.72 262.23 530.98 261.27 533.6 260.87 534.31 260.26 534.95 258.73 535.91 258.17 536.43 257.45 538.14 254.41 542.65 253.1 545.95 252.62 546.74 251.94 547.38 250.53 548.36 250.09 549.11 250.07 549.94 250.58 550.26 251.12 550.24 255.3 550.14 256.89 549.92 258.26 549.24 259.57 548.01 260.23 547.56 261.21 547.29 262.07 546.8 263.72 545.25 264.6 545.22 264.83 545.5 265.31 546.9 265.29 547.04 265.14 547.39 265.13 547.53 265.26 547.72 265.62 548.09 265.73 548.26 265.88 549.2 265.78 550.82 265.99 551.65 266.67 552.6 267.39 552.78 268.16 552.48 269.46 551.62 269.76 551.46 270.23 551.32 270.67 551.33 271 551.45 271.28 551.45 271.57 551.14 272.29 551.84 272.92 552.21 273.13 552.66 272.58 553.54 273.23 554.29 273.42 555.02 273.85 556.71 274.29 558.39 274.73 560.07 275.17 561.76 275.61 563.44 276.05 565.12 276.49 566.8 276.92 568.49 277.32 570.03 278.09 571.33 278.79 572.09 279.54 572.9 280.28 573.71 281.03 574.53 281.78 575.34 282.52 576.15 283.27 576.96 284.02 577.77 284.77 578.59 285.67 579.57 286.12 579.94 286.5 580.1 286.86 580.19 287.22 580.38 287.24 580.39 287.69 580.85 288.06 581.43 288.32 582.08 288.42 582.73 288.35 583.35 288.01 584.61 287.97 585.24 288.17 586.09 289.44 588.48 290.26 591.11 290.33 592.59 289.71 593.47 289.06 593.46 288.26 593.33 287.54 593.42 287.16 594.11 286.98 594.87 286.67 595.47 286.22 595.98 285.65 596.45 285.25 596.65 284.81 596.81 284.47 597.06 284.34 597.51 284.51 597.85 285.31 598.77 285.58 599.2 285.74 599.87 285.84 601.53 285.75 602.21 284.99 604.55 284.64 608.58 284.75 609.36 285.27 610.87 285.4 611.6 285.25 612.45 284.92 613.22 284.69 614.01 284.82 614.91 285.86 616.61 287.25 617.63 287.97 617.87 288.92 618.19 290.79 618.54 293.92 618.49 295.19 618.85 296.5 620.56 296.71 620.69 296.8 620.89 296.44 622.45 296.41 622.78 296.51 623.92 296.79 625.04 297.2 626.12 299.3 630.18 299.96 630.95 300.39 631.24 301.44 631.71 301.95 632.02 302.84 632.77 303.27 633.01 303.28 633.01 304.41 633.28 307.57 634.02 308.82 634.13 309.41 634.03 309.82 633.78 310.19 633.46 310.67 633.15 311.09 633.13 311.5 633.22 311.74 633.08 311.64 632.4 312.74 632.38 313.64 632.23 314.54 632.17 315.62 632.44 315.47 631.81 315.72 631.53 316.2 631.46 317.5 631.51 317.81 631.73 318.02 632.04 318.47 632.35 318.74 632.38 319.01 632.3 319.52 632 319.85 631.93 320.04 632.08 320.13 632.29 320.2 632.39 320.23 632.42 320.98 632.47 320.97 632.42 321.01 632.36 321.7 632.18 322.55 632.4 323.31 633.03 323.76 632.91 324.76 632.44 325.36 632.32 325.95 632.38 327.18 632.71 327.81 632.76 329.4 632.46 329.98 632.52 330.32 632.78 330.4 633.23 330.43 633.71 330.63 634.11 331.14 634.33 333 634.37 333.44 634.59 333.74 634.84 334.11 634.94 334.78 634.73 335.27 634.39 335.58 634.04 335.94 633.81 338.62 634.1 340.69 633.86 342.59 633.14 344.21 631.99 344.62 631.46 344.79 631.08 345.09 630.88 345.88 630.85 347.34 630.37 349 630.24 351.28 629.7 352.41 629.67 352.66 629.8 353.2 630.26 353.56 630.39 354.85 630.69 355.47 630.66 356.55 630.32 357.16 630.22 357.43 630.46 359.36 632.91 359.75 633.13 360.35 633.3 360.76 633.3 361.63 633.19 361.99 633.21 362.17 633.33 362.4 633.67 362.52 633.78 363.09 633.98 367.04 635.88 368.24 635.93 370.39 634.72 371.77 634.37 373.18 634.29 374.27 634.56 375.51 635.64 376.17 636.47 379.06 640.13 381.94 643.79 384.83 647.45 387.72 651.11 390.61 654.77 393.49 658.43 396.38 662.09 399.27 665.75 400.37 667.15 400.82 667.15 400.85 667.15 401.8 666.88 403.63 666.02 404.65 665.84 405.41 666.23 407.04 668.1 407.89 668.74 410.06 667.52 412.32 665.32 413.14 664.84 414.21 663.81 414.94 663.49 415.86 663.45 416.65 663.63 418.08 664.27 418.75 664.08 419.61 664.28 420.52 664.6 421.34 664.77 423.77 664.64 424.58 664.77 427.01 665.51 427.87 665.61 428.65 665.78 430.24 666.52 431.15 666.63 431.66 666.39 432.66 665.51 433.08 665.32 435.45 665.19 438.24 664.36 439.07 664.27 439.86 664.37 442.35 665.06 443.76 665.05 448.1 663.49 449.76 663.26 454.62 663.73 456.18 663.49 457.5 663.03 457.87 662.97 458.23 662.85 458.53 662.55 458.73 662.17 458.8 661.78 458.98 661.29 459.42 661.17 459.94 661.19 460.36 661.11 460.76 660.78 461.46 660.05 461.92 659.83 462.25 659.81 462.93 660.01 465.58 660.24 471.56 661.63 472.67 662.33 473.68 663.31 474.74 664.11 476.24 664.25 476.28 664.25 476.04 664.43 475.29 665 474.87 665.44 474.7 665.97 474.71 667.45 476.12 669.65 477.1 670.36 477.39 671.13 477.48 672.01 477.33 672.66 476.86 673.05 475.49 673.63 474.94 673.97 473.14 675.94 472.79 676.55 470.52 678.7 469.61 680.08 469 681.6 468.7 683.24 468.7 684.99 469.13 687.24 469.2 687.99 469.33 688.17 469.9 688.72 470.03 688.91 469.92 689.37 469.69 689.68 469.43 689.93 469.2 690.22 468.78 691.6 468.57 691.81 468.12 691.92 467.7 692.22 467 692.98 466.68 693.2 465.56 693.63 465.35 693.8 464.99 694.24 464.78 694.42 464.6 694.45 464.18 694.39 464 694.42 462.58 695.6 461.64 697.11 461.29 698.72 461.66 700.18 462 700.8 462.25 701.37 462.39 702.04 462.44 702.95 462.36 703.28 462.02 704.18 461.92 704.65 461.9 705.08 461.94 705.48 462.02 705.85 462.15 706.24 462.39 706.6 463.08 707.4 463.22 707.66 463.14 708.07 462.96 708.33 462.78 708.52 462.7 708.72 462.76 710.41 462.7 711.14 462.21 712.63 461.95 714.1 461.92 714.99 461.99 715.24 462.34 715.92 462.44 716.17 462.43 716.64 462.3 716.9 462.25 717.12 462.44 717.48 462.17 718.2 462.08 719.88 461.79 720.49 461.41 721.1 461.22 721.93 461.1 724.06 460.86 725.07 460.91 726.29 460.86 726.66 460.65 726.97 460.38 727.15 460.16 727.41 460.1 727.94 460.22 728.36 460.48 728.72 460.8 729.02 461.14 729.26 461.14 729 461.85 729.51 462.12 730.01 462.44 731.35 462.6 731.5 463.07 731.67 463.22 731.89 463.23 732.21 463.02 732.74 462.96 733.04 463.08 733.54 463.62 734.38 463.74 734.88 463.64 735.34 462.96 736.59 462.77 738.02 462.98 739.29 463.31 740.48 463.48 741.67 463.8 742.4 464.52 742.98 465.23 743.74 465.56 744.98 465.98 745.41 466.23 746.12 466.12 746.75 466.11 746.77 466.37 746.91 466.7 747.82 466.82 750.18 467 751 468.52 753.64 468.88 754.58 469.09 756.47 469.36 757.36 470.03 758.17 470.77 758.54 471.46 758.55 472.17 758.42 472.95 758.37 474.38 759.04 475.47 760.48 478.04 767.18 478.56 767.92 479.12 768.31 480.55 768.87 481.81 770.18 481.63 771.78 480.65 773.37 478.34 776.25 477.88 776.61 477.49 776.75 476.65 776.91 476.2 777.13 475.48 777.79 473.85 779.3 472.22 780.81 470.59 782.32 468.96 783.83 467.33 785.34 465.7 786.85 464.07 788.37 462.44 789.88 461.48 790.76 460.85 791.83 460.82 794.43 461.38 793.99 461.69 793.46 462.07 793 462.83 792.8 463.66 792.84 464.09 792.81 464.82 792.44 465.14 792.57 465.56 793.04 467.13 793.8 468.07 793.99 468.83 793.71 469.56 793.53 470.25 794.1 470.79 794.95 471.06 795.64 471.27 797.36 471.5 798.2 471.95 798.55 473.66 798.58 474.37 798.79 474.94 799.31 475.1 799.63 475.33 800.35 475.49 800.63 475.83 800.89 476.65 801.28 476.81 801.53 476.94 801.84 477.54 802.59 477.69 802.74 478.17 802.88 478.44 803.22 478.64 803.64 478.89 804.04 479.25 804.32 480.09 804.77 480.45 805.08 480.63 805.47 480.8 805.99 481.02 806.45 481.36 806.64 481.78 806.77 482.19 807.07 482.92 807.79 483.26 808 484.61 808.44 485.89 809.21 486.19 809.5 486.33 809.88 486.34 810.6 486.56 810.95 486.8 811.71 486.29 812.49 485.56 813.18 485.13 813.69 485.14 814.39 485.75 815.85 486.02 817.02 486.64 818.64 486.97 819.15 487.55 819.48 488.24 819.69 488.81 819.99 489.05 820.61 489.18 822.67 489.05 823.34 488.88 823.62 488.27 824.4 488.37 824.88 488.63 825.27 488.92 825.58 489.21 826.07 489.93 826.57 490.09 826.86 490.19 827.27 490.87 828.56 494.14 837.26 494.25 838.08 494.25 839.78 494.4 840.53 494.77 841.36 495.58 842.69 495.94 843.51 496.09 844.36 495.83 845.92 495.98 846.45 496.33 846.84 496.77 847.19 497.16 847.6 497.56 848.36 497.85 849.29 497.89 850.2 497.19 851.61 497.38 852.51 498.17 854.14 496.71 854.44 494.24 855.12 490.93 856.04 490.14 855.92 489.82 854.96 489.68 852.97 490.61 842.01 490.26 839.59 488.95 835.59 487.49 832.6 483.33 827.1 482.43 825.49 481.21 822.51 480.45 821.1 479.49 820.15 478.88 819.85 477.25 819.27 476.67 819.21 476.31 819.42 475.67 820.1 475.32 820.27 473.99 820.44 473.34 820.85 472.31 821.74 470.84 822.44 467.91 825.55 463.32 831.67 462.16 832.76 460.65 833.62 459.41 834.07 458.05 834.39 456.68 834.43 455.41 834.05 454.13 833.01 453.11 831.52 452.32 829.87 451.49 827.42 451.11 826.72 450.54 826.2 449.66 825.84 448.88 825.68 448.6 825.55 448.29 825.26 448.21 824.98 448.2 824.22 448.02 823.96 447.69 824.23 445.41 829.93 444.67 831.03 444.92 831.19 445.89 831.31 446.24 831.76 446.16 832.59 446.24 833.28 447.67 833.34 447.97 833.53 448.08 833.86 448.04 834.34 448.15 834.59 448.47 834.83 449.12 835.15 446.26 835.15 444.43 835.15 439.63 835.16 432.84 835.16 425.05 835.17 417.27 835.18 410.47 835.18 405.67 835.19 403.85 835.19 402.29 835 399.4 833.77 396.63 833.19 395.17 833.28 392.55 834.48 390.99 834.61 390.18 834.49 389.5 834.47 388.85 834.62 387.22 835.47 386.52 835.68 385.24 835.67 384.67 835.67 384.95 837.14 384.93 839.76 384.92 842.38 384.9 844.99 384.89 847.61 384.87 850.23 384.86 852.85 384.84 855.46 384.83 858.08 384.82 860.36 385.69 860.44 387.27 859.41 388.23 859.15 388.72 859.17 389.21 859.25 389.55 859.46 389.6 860.29 390 860.39 393.66 859.85 394.54 859.88 396.2 860.45 396.59 860.5 397.84 860.48 399.06 860.31 399.42 860.36 399.76 860.52 399.93 860.69 400.04 860.86 400.24 861.03 400.95 861.46 401.34 861.53 403.14 860.22 403.75 860.06 404.37 860.18 406.27 861.15 406.82 861.54 407.47 862.36 408.12 862.78 408.4 863.06 408.5 863.41 408.54 863.86 408.65 864.25 409.49 864.76 409.27 866.14 409.88 866.73 410.76 867.07 411.21 867.33 411.46 867.65 411.46 868.17 411.18 868.35 410.82 868.4 410.59 868.54 410.5 869.34 410.88 871.03 410.88 871.91 410.62 872.31 410.22 872.61 409.94 872.94 410.06 873.47 410.37 873.76 411.19 874.14 411.48 874.4 411.89 875.25 412.03 875.94 411.8 876.42 411.08 876.65 410.74 876.6 410.03 876.34 409.63 876.35 409.33 876.53 408.93 877.11 408.65 877.29 408.04 877.33 406.64 877.12 405.95 877.16 406.12 876.11 405.76 875.7 405.07 875.7 404.23 875.94 403.46 876.29 403.22 876.16 400.52 873.44 399.83 872.97 399.06 872.79 398.09 872.91 397.34 873.25 396.11 874.04 395.4 874.12 394.64 874.45 394.25 875.28 393.69 875.92 392.47 875.66 391.39 875.18 390.82 875.23 389.36 876.37 388.04 877.06 386.6 877.59 385.06 877.9 382.45 878.06 381.71 878.27 380.99 878.39 380.09 878.22 379.22 878.24 378.4 878.62 377.69 878.82 377.13 878.3 377.06 880.95 377.03 881.92 376.96 884.48 376.85 888.1 376.74 892.24 376.63 896.39 376.53 900.01 376.46 902.57 376.43 903.54 376.38 905.45 376.6 906.79 377.05 907.59 378.52 909.29 380.46 911.06 381.31 912.33 381.72 912.66 382.43 912.94 383.94 913.28 384.59 913.7 384.84 914.05 385.19 914.9 385.48 915.28 385.86 915.55 386.74 915.96 387.13 916.24 388.27 917.48 388.84 917.94 391.89 919.08 392.54 919.43 393.2 920 393.67 920.67 393.98 921.43 394.15 922.28 394.17 923.41 394.25 923.78 394.45 924.17 394.7 924.46 394.92 924.78 395.02 925.24 394.77 926.14 393.58 927.93 393.34 928.62 393.72 929.51 395.16 931.13 395.46 931.67 395.35 932.65 395.44 933.03 395.78 933.57 396.04 933.8 396.31 933.94 396.58 934.15 396.81 934.56 396.85 935.01 396.76 935.37 396.73 935.75 396.99 936.26 397.3 936.52 398.13 936.88 398.49 937.1 399.32 938.31 399.56 938.51 399.94 938.57 400.13 938.65 400.25 938.8 400.4 939.09 400.32 939.18 400.52 940.63 400.44 941.05 400.2 941.83 400.2 942.28 401.64 944.59 402.06 945.73 401.23 947.86 401.23 947.88 401.34 949.59 400.71 953.11 400.74 954.85 400.05 957.45 400.06 958.23 399.51 960.14 399.08 962.48 397.96 968.62 396.85 974.76 395.73 980.9 394.61 987.04 393.49 993.18 392.38 999.32 391.26 1005.47 390.14 1011.61 389.02 1017.75 387.9 1023.9 386.79 1030.05 385.67 1036.19 384.55 1042.34 383.44 1048.49 382.32 1054.64 381.2 1060.8 381.16 1060.88 381.12 1060.96 381.07 1061.05 381.03 1061.13 380.99 1061.21 380.94 1061.3 380.9 1061.39 380.86 1061.47 380.82 1061.55 380.78 1061.63 380.74 1061.72 380.69 1061.81 380.65 1061.89 380.61 1061.97 380.57 1062.06 380.52 1062.14 379.47 1060.02 378.8 1059.04 378.03 1058.14 376.89 1057.21 373.03 1055.24 372.02 1054.22 371.62 1052.96 371.4 1051.6 370.93 1050.25 370.02 1048.95 368.77 1047.64 367.35 1046.6 365.88 1046.09 364.81 1046.2 363.99 1046.7 362.5 1048.07 361.51 1048.49 360.5 1048.48 358.47 1047.97 358.06 1047.69 352.89 1044.98 351.24 1044.8 352.52 1042.8 355.5 1038.13 358.49 1033.47 361.48 1028.8 364.46 1024.13 367.45 1019.46 370.44 1014.79 373.42 1010.13 376.41 1005.47 377.26 1004.11 377.27 1004.08 377.06 1004.01 376.62 1003.67 376.31 1003.21 376.06 1002.64 375.57 1000.96 375.16 1000.68 374.39 1001.2 374.17 1001.55 374 1001.96 373.79 1002.27 373.46 1002.36 373.11 1002.16 373.04 1001.83 373.06 1001.44 372.94 1001.06 372.19 1000.47 371.54 1000.65 370.91 1000.95 370.2 1000.68 369.77 1000 369.24 998.38 368.76 997.67 367.93 997.26 367.19 997.5 366.43 997.97 365.5 998.22 365.31 998.11 365.07 997.83 364.88 997.48 364.86 997.15 365.04 996.98 365.69 996.73 365.88 996.61 366.06 995.78 365.58 995.41 364.77 995.33 363.95 995.33 363.53 995.43 362.63 995.82 362.24 995.85 361.79 995.63 361.58 995.31 361.44 994.92 361.22 994.51 360.75 994.1 360.08 993.77 359.36 993.55 358.72 993.47 358.13 993.17 357.66 992.63 357.16 992.31 356.5 992.73 356.4 993.09 356.43 993.51 356.4 993.88 356.1 994.03 354.53 994.03 354.27 993.83 354.2 993.36 354.2 992.83 354.15 992.45 353.92 992.03 352.72 991.04 352.57 990.96 352.57 989.86 352.48 989.56 352.29 989.37 351.3 989.24 350.6 989.07 349.19 988.57 347.88 987.71 345.91 985.61 344.75 984.9 343.96 985.25 343.01 985.07 341.39 984.38 340.3 984.35 339.9 984.89 339.98 985.76 340.33 986.73 339.99 986.92 339.54 986.97 339.06 986.87 338.1 986.29 337.61 986.28 336.55 986.47 335.68 986.87 334.95 988.68 333.87 989.23 333.16 989.78 332.75 989.87 332.34 989.74 331.88 989.4 331.47 989.3 330.91 989.52 330.11 989.94 329.4 990.11 329.11 989.59 326.38 990.91 325.09 991.19 324.66 990.39 324.81 990.1 325.34 989.63 325.44 989.3 325.31 988.91 324.4 987.76 323.74 986.58 323.35 986.44 322.82 986.99 322.44 988.41 322.15 988.86 321.54 988.57 321.28 987.99 321.23 986.4 321.05 985.68 320.62 985.35 318.43 984.9 317.64 984.48 316.93 983.93 316.18 983.48 315.28 983.32 314.01 983.98 313.27 984.09 312.94 983.45 313 982.11 312.71 981.9 311.88 982.28 309.66 983.68 309.28 983.71 309.09 984.1 307.72 986.21 305.92 987.6 305.64 987.89 305.46 988.74 305 989.21 304.33 989.38 301.94 989.04 300.7 989.05 299.64 989.47 298.57 990.39 296.89 992.32 296.33 992.5 293.87 991.93 293.49 991.96 292.51 992.16 292.31 992.32 292.34 993.1 292.24 993.37 291.91 993.47 291.02 993.56 289.5 993.96 288.65 994.03 287.94 993.87 287.27 993.51 286.76 993.05 286.57 992.59 286.23 992.3 282.32 991.68 281.61 991.46 279.88 990.06 279.21 989.69 278.51 989.59 278.03 990.2 277.03 992.28 276.55 992.73 275.92 992.94 275.69 992.86 275.56 991.86 275.45 991.47 275.3 991.14 275.11 990.86 274.63 991.09 274.33 991.36 274.14 991.72 274.04 992.19 273.04 991.47 272.4 991.25 271.46 991.73 270.37 992.11 269.92 992.55 269.39 992.74 267.78 993.06 267.43 993.07 267.13 992.83 266.76 992.19 266.12 990.43 265.56 989.94 265.44 989.73 262.82 988.28 262.73 988.69 262.27 989.56 261.78 990.01 261.54 989.2 261.2 988.86 259.54 988.45 258.92 988.02 258.82 987.73 258.63 986.6 258.51 986.39 258 985.99 257.88 985.8 257.8 985.58 257.44 985 257.36 984.62 257.41 984.24 257.53 983.99 257.88 983.58 259.26 982.33 259.62 981.5 260.74 979.66 260.23 979.18 259.93 978.38 259.72 977.5 259.46 976.79 258.8 975.81 258.54 975.31 258.4 974.71 258.45 974.17 258.83 973.22 258.92 972.87 258.7 972.23 257.8 971.17 257.59 970.64 257.88 969.23 257.62 968.81 257.3 968.6 256.94 968.45 256.58 968.19 255.56 967.04 255.17 967.04 255.02 968.05 254.78 968.18 253.5 967.85 252.91 967.92 252.3 968.52 252.01 968.94 251.62 968.88 250.71 968.05 250.23 967.75 249.77 967.69 249.35 967.71 248.81 967.64 248.39 967.7 248.21 967.67 248.16 967.54 248.03 967.02 247.97 966.88 245.51 965.38 244.75 964.43 244.83 962.96 245.27 961.7 245.59 961.12 246.52 960.57 246.56 959.85 246.16 958.25 246.1 957.75 246.11 957.35 246.04 956.98 245.74 956.57 244.94 955.98 244.52 955.31 243.1 954.65 242.75 954.07 243.35 953.35 243.53 952.94 242.94 952.67 242.72 952.42 242.54 952.11 242.47 951.85 242.43 951.02 242.35 950.71 242.23 950.43 242.09 950.39 241.58 950.46 241.43 950.43 241.36 950.26 241.3 949.84 241.03 949.25 240.93 948.83 240.73 948.49 239.84 948.23 239.11 947.69 238.69 947.57 237.81 947.42 237.08 947.02 236.55 946.44 236.23 945.75 235.66 945.97 235.05 946.93 234.41 947.29 233.96 947.28 233.35 947.15 232.33 946.79 231.8 946.44 231.43 946.04 230.75 944.97 230.16 943.46 229.94 943.1 229.31 942.88 228.13 943.14 227.6 942.86 227.55 942.55 227.91 941.88 227.87 941.57 227.55 941.29 227.36 941.4 227.22 941.64 227.09 941.8 226.67 942 226.47 942.2 226.25 942.26 225.78 942.06 225.48 941.8 225.29 941.48 224.4 938.83 223.97 938.42 223.38 939.54 222.34 939.57 220.02 938.68 217.75 938.27 216.74 937.72 215.88 936.6 215.34 934.88 214.96 934.37 214.01 933.73 213.78 933.39 214.04 932.94 214.51 932.85 215.13 932.96 215.66 932.96 215.88 932.54 215.68 932.06 215.29 931.65 215.07 931.21 215.36 930.6 215.07 930.47 214.41 930.45 214.04 930.34 213.78 930.17 212.49 928.74 212.23 928.18 212.24 927.46 212.42 927.13 212.91 926.71 213 926.44 211.18 922.52 211.1 922.17 211.1 922.16 211.06 921.74 210.98 921.36 210.79 921.19 210.27 921.17 210.07 921.09 209.74 920.55 209.24 919.99 208.78 919.6 206.47 918.21 205.48 917.42 203.88 915.73 202.8 913.92 202.44 913.63 202.03 913.71 201.71 913.9 201.47 914.08 201.28 914.17 200.75 914.15 200.53 914.01 200.41 913.82 200.21 913.63 199.95 913.43 199.79 913.27 199.55 913.15 198.6 913.07 197.85 912.87 197.46 912.83 196.79 912.6 197.09 912.09 198.13 911.29 196.83 908.65 196.29 907.89 195.5 907.19 195.04 907.29 194.09 908.81 193.66 909.14 193.28 909.18 192.65 908.95 191.35 908.67 190.54 908.31 190.03 907.92 188.47 906.23 188.23 906.04 187.88 905.94 187.21 905.92 186.89 905.81 186.45 905.38 184.95 903.33 184.22 902.75 183.42 902.35 181.71 901.88 180.95 901.8 180.36 901.93 180 902.32 179.87 903.05 179.68 903.54 179.2 904.11 178.6 904.57 178.03 904.77 177.32 904.35 174.9 903.47 172.77 903.06 172.03 902.53 171.12 902.21 168.9 900.85 167.11 899.25 166.43 899.02 166.04 898.78 165.56 898.23 164.95 897.69 164.2 897.44 163.48 897.53 161.84 897.9 160.96 897.99 160.12 897.91 159.38 897.73 158.75 897.48 157.68 896.88 156.15 895.75 155.83 895.23 153.52 893.8 152.57 892.93 152.15 892.32 151.98 891.58 151.79 891.1 149.24 887.88 149.07 887.42 148.71 886.85 147.85 886.96 146.89 887.27 146.19 887.3 146 887 145.78 886 145.55 885.59 145.24 885.45 144.81 885.42 143.98 885.46 143.05 885.4 142.22 885.21 141.47 884.88 140.73 884.4 139.68 883.29 139.3 883.12 138.88 883.24 138.19 883.76 137.99 883.88 137.78 884.07 136.83 885.2 136.48 885.33 136.07 885.41 135.25 885.46 134.89 885.39 134.91 885.64 134.81 888.48 135.21 891 134.54 891.45 130.76 891.89 129.77 892.4 129.22 892.47 128.5 892.22 127.48 891.27 126.88 890.85 126.33 890.69 124.47 890.49 123.16 890.13 122.69 890.3 122.78 891.82 122.2 891.84 120.84 891.23 120.36 891.18 117.72 891.58 117.14 891.55 116.6 891.36 115.95 890.88 115.12 890.04 114.73 889.76 114.1 889.54 113.63 889.47 112.1 889.44 110.97 889.06 109.51 887.41 108.72 887.21 108.2 887.08 107.54 887.2 105.62 887.92 104.79 887.97 104.2 887.79 103.64 887.51 102.92 887.25 98.87 886.42 97.54 885.94 96.51 885.15 96.12 884.18 95.95 883.04 95.61 881.76 95.36 877.76 94.85 875.91 93.28 875.52 93.09 875.54 91.98 875.7 90.59 875.15 88.09 873.42 87.28 872.23 87.03 869.49 85.9 868.59 84.95 868.59 81.92 869.74 81.15 869.9 80.38 869.88 79.57 869.7 78.68 869.36 78.28 869.01 78.2 868.6 78.21 868.18 78.08 867.79 77.71 867.4 77.52 867.38 77.33 867.48 76.92 867.47 74.33 866.5 71.63 866.4 70.03 865.62 65.07 861.87 64.29 861.46 62.03 860.85 61.3 860.49 60.4 859.81 56.82 855.83 56.39 855.49 56.12 855.28 54.01 854.8 53.44 854.85 52.89 855.16 52.68 854.55 51.88 853.7 51.73 853.31 51.67 852.58 51.31 852.47 50.78 852.64 50.18 852.74 49.29 852.46 48.54 851.88 47.97 851.12 47.59 850.27 47.2 849.63 46.08 848.72 45.28 847.61 43.04 846.08 43.65 845.79 43.39 845.11 42.92 844.71 42.41 844.38 42.06 843.95 42.02 843.37 42.1 842.65 42.1 841.92 41.82 841.35 41.58 841.28 41.09 841.51 40.34 841.85 40.03 841.48 39.64 841.13 39.14 841.06 38.77 840.72 37.95 840.26 37.6 840.1 36.6 839.47 36.04 838.87 35.7 838.31 35.89 837.67 36.19 837.3 36.78 837.08 37.53 836.89 38.2 836.26 38.8 835.1 39.32 834.39 40.29 833.42 41.08 832.52 41.6 831.96 42.38 831.33 44.16 830.93 45.02 831.07 45.68 830.99 46.51 831.17 47.23 831.49 48.05 831.69 49.32 831.78 50.17 831.96 51.27 832.1 51.46 832.2 51.73 832.51 52.09 832.78 52.48 832.9 52.84 832.83 52.82 832.29 52.87 832 53.02 831.4 53.53 830.84 53.8 829.87 53.5 829.25 53.55 828.68 53.61 828.55 53.74 828.37 53.84 828.12 53.83 827.78 53.72 827.55 53.57 827.71 53.33 828.18 52.84 828.46 52.08 828.46 51.84 827.96 51.82 827.25 51.98 826.48 52.03 825.9 52.23 824.97 52.27 824.51 52.15 824.18 51.84 823.79 51.45 823.46 51.06 823.33 50.65 823.57 50.33 824.06 49.94 825.27 49.53 825.48 49.25 825.18 49.19 824.39 49.06 823.35 48.59 822.05 48.26 820.25 47.92 818.94 47.82 817.3 48.26 816.36 48.73 815.32 49 814.35 50.02 813.93 50.34 812.85 51.47 810.82 52.3 809.17 52.74 808.02 53.31 807.42 53.07 808.05 53.03 808.7 53.14 809.35 53.31 809.99 53.85 808.27 54.18 806.42 54.6 805.65 55.31 805.83 56.27 804.63 57.22 803.5 58.14 802.16 58.95 801.85 59.62 801.21 60.43 800.44 61.42 799.84 61.88 799.87 62.23 800.76 62.66 801.78 63.25 802.77 64.03 803.86 64.89 803.88 64.49 802.59 64.28 801.5 64.31 800.34 64.63 799.77 65.19 799.24 65.62 799.91 65.9 801.08 65.65 801.92 66.04 802.56 66.39 803.37 66.69 804.05 67.24 804.66 67.57 804.9 68.93 805.57 69.55 805.75 69.91 805.72 70.54 805.31 71.3 805.08 71.35 804.87 71.36 804.58 71.33 804.34 71.3 804.27 71.43 804.05 71.49 803.9 71.5 802.52 71.36 801.96 71.18 801.36 70.79 800.73 70.58 800.06 70.94 799.71 71.78 799.88 72.17 799.6 73.08 799.57 73.79 799.6 74.42 799.57 74.92 799.25 75.76 798.76 76.5 798.83 77.04 799.3 77.43 800.02 77.73 800.44 78.14 800.54 78.86 800.34 78.52 800.94 78.2 801.74 78.24 802.43 79 802.73 79.45 802.78 80.22 802.96 80.7 802.97 81.68 802.76 82.12 802.73 83.05 802.52 83.72 801.99 84.07 801.3 84.06 800.63 83.82 800.14 83.39 799.49 82.84 798.95 82.26 798.78 82.26 798.55 83.04 798.55 83.04 798.26 82.54 798.16 82.3 797.9 82.3 797.56 82.5 797.22 82.1 797.12 81.97 796.88 82.04 796.56 82.26 796.18 81.92 796.11 81.76 796.01 81.72 795.79 81.74 795.4 82.41 795.67 82.94 795.45 83.42 795.06 83.94 794.85 84.18 794.82 84.52 794.73 84.74 794.57 84.6 794.36 84.28 794.3 83.66 794.59 83.32 794.59 82.75 794.24 82.9 793.96 83.32 793.71 83.56 793.45 83.82 793.54 84.44 793.66 85.13 793.71 85.66 793.58 85.82 793.83 86.08 794.14 86.16 794.36 86.44 794.36 86.07 793.54 84.67 793.19 85.12 792.51 85.71 792.2 86.26 792.13 86.77 792 87.22 791.47 87.59 791.62 87.89 791.79 88.12 792 88.24 792.28 88.45 791.39 87.63 791.11 86.47 791.28 85.66 791.73 85.45 791.16 85.42 790.33 85.63 789.54 86.16 789.13 86.68 789.19 87.03 789.5 87.34 789.88 87.74 790.17 88.17 790.3 88.3 790.23 88.34 790 88.52 789.65 88.87 789.3 89.04 789.18 89.07 789.03 89.04 788.61 88.91 788.4 88.39 788.26 88.24 788.09 88.25 787.89 88.46 787.76 88.64 787.26 88.84 787.19 88.94 787.11 88.78 786.76 88.53 786.62 88.22 786.64 87.93 786.59 87.74 786.24 87.69 786.51 87.63 786.58 87.63 786.6 87.74 786.76 87.33 787.01 86.91 787.09 86.57 786.96 86.44 786.52 85.49 787.38 85.12 787.57 85.19 787.11 86.59 785.43 87.45 784.19 88.01 783.6 90.91 781.15 91.67 779.74 92.12 778.91 92.68 778.74 93.3 779 93.42 778.62 93.46 778.29 93.56 777.9 93.83 777.89 94.17 777.98 94.41 777.75 94.19 777.36 93.6 777.09 93.02 777.28 92.16 777.38 92.04 777.04 92.5 776.45 93.43 775.65 94.07 775.26 94.97 774.92 94.48 774.48 94.53 773.7 94.83 773.28 95.25 772.84 95.71 772.57 96.08 772.65 96.71 772.49 97.25 772.42 97.42 772.31 98.16 771.64 99.02 773.23 99.58 773.86 100.53 774.22 100.35 773.79 99.09 772.27 98.75 771.71 98.69 771.09 98.87 770.49 99.23 770.03 99.36 770.35 99.62 770.71 99.87 770.89 99.98 770.72 99.91 770.43 99.57 769.94 99.49 769.79 99.68 769.02 100.04 768.37 100.25 767.71 99.98 766.9 100.38 766.88 100.76 766.9 100.64 767.09 100.57 767.28 100.54 767.52 100.53 767.82 100.63 768.1 100.87 768.11 101.24 767.86 101.9 767.92 102.08 768.01 102.42 768.35 102.61 768.46 102.56 768.1 102.41 767.81 102.17 767.6 101.83 767.45 101.99 767.36 102.17 767.24 102.32 767.16 101.61 766.91 101.29 766.9 101.44 766.54 101.59 766.45 101.78 766.51 102.09 766.67 102.2 766.1 101.66 765.9 100.88 765.95 100.27 766.12 100.42 765.53 100.85 765.44 101.44 765.56 102.09 765.6 101.89 765.5 101.49 765.22 101.29 765.1 101.5 765.02 101.63 764.93 101.78 764.86 102.09 764.82 101.97 764.66 101.83 764.27 102.59 764.11 103.39 764.04 103.39 764.27 103.2 764.62 103.58 764.62 104.69 764.27 104.15 764.14 104.02 763.88 104.19 763.53 104.87 762.73 105.11 762.26 105.47 761.15 105.9 761.46 106.21 761.54 106.51 761.4 106.91 761.03 107.33 760.87 107.92 760.72 108.17 760.56 107.57 760.37 107.06 760.44 106.56 760.63 106.17 760.59 106.01 760 106.28 759.91 106.87 759.8 107.5 759.55 107.86 759.06 107.2 759.15 105.61 759.58 105.1 759.34 104.94 758.75 105.02 758.06 105.23 757.5 106.3 758.27 106.87 758.46 107.71 758.52 107.89 758.44 107.79 758.27 107.52 758.1 107.17 758.02 106.76 758.02 106.45 757.99 106.2 757.84 106.01 757.5 106.64 757.55 107.17 757.45 107.58 757.17 107.86 756.72 107.26 756.35 106.9 755.89 106.94 755.38 107.57 754.87 107.87 755.08 108.04 755.28 108.11 755.54 108.09 755.94 108.65 755.39 108.41 754.61 108.31 753.9 110.06 753.32 110.53 752.69 110.92 751.98 111.47 751.49 111.47 751.25 109.13 751.75 109.13 751.49 109.39 751.4 109.65 751.25 108.69 751.26 108.25 751.18 107.86 750.96 107.98 752.62 105.77 753.88 103.03 754.35 101.57 753.59 101.64 753.24 102.19 752.94 102.32 752.65 102.19 752.5 101.53 752.17 101.06 751.87 100.9 751.86 100.8 751.77 100.76 751.36 100.8 751.04 100.9 750.76 101.05 750.44 101.24 749.45 101.44 749.11 101.83 748.88 102.37 748.79 102.74 748.92 102.77 749.21 102.32 749.64 104.14 749.34 104.69 749.14 104.69 748.88 103.39 749.14 103.56 748.66 103.83 748.23 104.85 747.03 105.47 745.7 105.06 745.72 104.87 745.67 104.79 745.52 104.69 745.21 104.11 745.34 103.66 745.01 103.2 744.52 102.61 744.14 102.77 744.51 102.83 744.93 102.77 745.34 102.61 745.7 102.28 745.52 101.95 745.47 101.61 745.53 101.29 745.7 101.29 745.99 101.47 746.15 101.48 746.17 101.4 746.24 101.29 746.53 101.11 746.37 101 746.33 100.84 746.32 100.53 746.25 100.64 746.97 100.53 748.02 100.25 748.98 99.86 749.4 99.73 749.63 99.6 750.68 99.49 750.96 98.88 751.02 98.4 750.7 98.21 750.18 98.45 749.64 96.49 748.1 96.27 747.79 96.1 747.15 96.28 746.59 97.12 746.53 96.68 745.98 96.53 745.7 96.25 744.67 96.11 743.5 96.1 742.35 96.19 741.82 96.42 741.39 96.86 741.01 97.39 740.89 97.91 740.96 98.29 740.88 98.45 740.37 98.6 740.11 98.96 739.83 99.42 739.7 99.86 739.85 100.49 740.61 100.75 740.68 101.29 740.52 101.97 740.11 102.58 739.54 103.67 738.14 100.45 738.11 99.86 738.01 99.33 737.36 97.93 735.02 99 733.49 99.23 732.91 99.53 731.26 99.91 730.68 100.76 730.28 100.76 730.02 99.98 730.28 100.09 729.2 100.5 727.4 100.53 722.17 100.65 722.52 100.8 722.8 101.01 723.03 101.29 723.24 101.46 722.85 101.57 722.23 101.44 721.65 100.53 721.17 100.4 720.67 100.37 720.06 100.27 719.54 101.12 719.66 101.79 720.13 102.28 720.76 102.61 721.39 102.84 721.39 102.4 720.17 100.78 718.21 100.53 716.93 100.35 717 99.9 717.13 99.72 717.21 99.4 715.65 98.94 710.75 98.71 710.12 98.47 704.38 98.66 703.08 99 701.84 99.49 700.72 98.94 700.39 98.9 699.56 98.99 698.71 98.83 698.33 98.47 698.01 98.27 697.27 98.16 695.74 97.6 695.92 97.26 695.75 97.11 695.32 97.12 694.67 97.38 694.67 97.56 694.85 97.69 694.94 97.87 694.9 98.16 694.67 97.77 694.42 97.62 694.07 97.34 692.89 97.38 692.76 97.35 692.6 97.12 692.32 96.95 692.25 96.32 692.15 96.08 692.06 95.65 691.65 95.39 691.25 95.07 690.92 94.53 690.75 93.98 690.75 93.58 690.87 93.33 691.13 93.23 691.54 92.77 691.13 92.32 691.16 91.93 691.3 91.64 691.27 91.38 690.85 91.47 690.51 91.81 690.29 92.3 690.21 92.63 689.81 93.53 687.93 93.98 687.34 94.32 687.23 95.17 687.17 95.54 687.08 96 686.75 96.33 686.41 96.7 686.15 97.25 686.05 97.93 686.25 98.5 686.62 99.13 686.84 99.98 686.55 100.23 686.32 100.32 686.09 100.37 685.82 100.53 685.51 100.56 685.34 100.5 684.9 100.53 684.73 100.7 684.68 100.95 684.73 101.18 684.74 101.29 684.61 101.46 684.19 101.88 683.86 102.37 683.56 102.73 683.28 102.98 682.89 103.17 682.46 103.31 682 103.39 681.56 103.29 679.97 102.71 678.62 101.16 676.11 101.02 675.98 100.76 675.79 100.73 674.95 99.23 670.83 98.94 670.83 98.94 671.87 98.71 671.87 98.09 670.2 97.12 668.69 94.78 665.84 94.37 665.16 94.23 664.6 94.26 663.08 94.53 661.72 94.56 661.05 94.26 660.56 94.53 660.32 95.95 661.51 96.86 662.67 97.25 662.4 97.63 661.74 98.16 660.32 98.29 659.6 98.33 658.93 98.28 658.36 98.16 657.94 97.47 656.98 97.57 656.67 98.45 656.35 98.55 656.59 98.67 656.7 98.81 656.77 98.94 656.9 99.1 656.31 98.97 655.77 98.63 655.34 98.16 655.07 98.16 654.8 98.74 653.83 98.93 653.21 98.94 652.43 99.44 651.85 99.61 651 99.52 650.14 99.23 649.55 97.93 648.5 97.66 648.21 97.48 647.94 97.26 647.69 96.86 647.45 96.88 647.03 97.08 646.23 97.12 645.74 97.01 645.25 96.73 645.06 96.35 644.95 95.06 644.22 94.16 644.43 93.42 645.01 92.97 645.6 93.12 645.86 93.23 646.12 92.92 646.18 92.71 646.26 92.42 646.41 92.19 646.41 92.18 645.44 92.24 644.98 92.42 644.55 90.84 641.14 90.08 640.1 88.99 639.03 88.45 638.67 87.44 638.43 87.28 638.23 87.12 638.12 86.68 638.27 86.55 638.49 86.56 638.8 86.5 639.11 86.16 639.29 85.97 636.64 86.31 635.53 87.36 635.08 87.82 634.4 87.35 632.91 86.16 630.65 85.9 630.65 86.14 631.1 86.26 631.25 86.44 631.41 86.44 631.7 86.16 631.7 85.51 630.8 82.71 627.8 82.3 627.56 81.61 627.48 81.23 627.26 81 626.78 80.7 626.32 80.16 626.15 80.42 625.91 79.93 625.76 79.49 625.41 78.86 624.58 78.56 624.49 78.56 624.49 80.11 619.49 81.44 615.22 82.35 615.42 83.19 615.29 83.92 614.85 84.48 614.14 84.83 613.15 84.71 612.33 83.85 610.65 83.51 609.46 83.33 607.83 83.57 606.41 84.48 605.91 84.88 606.12 86.78 607.75 87.15 608.17 87.14 608.27 86.98 608.62 86.98 608.76 87.09 608.86 87.41 608.94 87.51 609.01 88.57 610.45 88.86 610.96 89.32 612.88 89.72 613.32 90.59 613.23 91.54 612.46 93.28 610.7 98.62 607.37 99.73 606.36 99.5 605.65 98.71 604.9 98.2 603.77 98.33 603.31 99.45 601.88 100.42 599.68 101.23 598.87 102.4 598.25 103.68 597.83 104.82 597.58 106.23 597.6 106.45 597.44 106.16 596.84 105.78 596.44 105.38 596.15 105.01 595.8 104.76 595.24 104.69 594.31 103.87 591.31 102.77 589.18 102.41 588.65 101.43 587.2 100.6 585.46 100.32 585.06 99.83 584.85 99.32 584.82 98.84 584.64 98.42 583.98 98.09 582.61 97.77 579.97 97.22 578.62 96.59 577.55 96.19 577.21 95.55 577 94.41 577.11 94.06 576.88 94.06 576 94.38 574.86 94.8 574.41 95.87 573.26 96.33 572.3 96.29 571.62 96.11 571.22 96.14 570.93 96.77 570.54 97.38 570.4 98 570.34 98.39 570.06 98.45 569.52 98.46 569.35 98.53 569.24 98.62 569.14 98.71 569 99.28 569.35 99.67 570.77 100.13 571.5 100.59 571.96 100.98 572.44 101.29 573.01 101.57 573.73 101.89 575.22 102.21 576.03 104.69 577.72 106.61 578.5 107.17 578.9 107.58 579.39 110.66 584.48 111.47 585.1 111.99 585.2 113.06 585.21 113.22 585.25 113.57 585.34 113.81 584.85 114.11 584.85 114.34 585.24 114.33 585.87 114.09 585.87 113.97 585.75 113.81 585.63 113.81 586.59 114.07 587.27 114.54 587.52 115.13 587.21 115.13 587.99 115.65 587.44 115.81 587.84 115.44 588.46 115.39 589.04 115.22 588.97 114.78 588.85 114.61 588.78 114.86 590.15 115.78 590.72 116.64 590.6 116.72 589.85 119.06 589.85 118.82 590.19 118.62 590.57 118.5 590.99 118.51 591.43 118.8 591.43 118.93 591.32 119.32 591.14 119.32 591.43 117.99 591.93 117.99 592.19 118.33 592.25 118.56 592.35 118.87 592.7 118.83 592.77 118.83 592.88 118.8 593 118.63 592.82 118.41 592.71 118.12 592.67 117.75 592.72 118.07 593.05 118.44 593.3 118.8 593.58 119.06 594.05 118.1 593.6 117.07 593.32 116.18 593.41 115.65 594.05 115.64 594.22 115.69 594.26 115.78 594.26 115.89 594.29 115.19 596.47 116.21 597.81 118.24 598.46 120.61 598.52 121.06 598.44 121.52 598.28 121.91 598.04 122.17 597.73 122.3 597.39 122.28 597.16 122.22 596.93 122.17 596.56 122.26 596.25 122.61 595.86 122.69 595.5 122.93 593.13 122.87 592.05 122.41 591.14 122.31 591.45 122.28 591.64 122.31 591.85 122.41 592.19 122.17 592.19 121.98 591.58 121.84 590.69 121.83 589.8 122.27 588.51 122.12 587.68 121.63 586.42 121.42 585.16 121.42 579.79 121.24 579.07 120.74 578.77 120.2 578.56 119.96 578.02 119.82 577.33 119.58 576.67 118.81 575.85 117.62 575.04 116.23 574.38 115.13 574.26 115.13 574.54 114.68 574.12 115.3 573.15 116.23 572.04 116.72 571.23 120.48 570.05 121.4 569.98 125.11 568.92 125.61 568.65 125.81 568.33 125.82 567.91 125.88 567.47 126.04 567.09 126.36 566.87 126.36 566.63 126.1 566.63 126.1 566.34 126.82 566.22 129.41 565.26 129.92 564.91 131.6 563.2 133.57 561.83 134.44 561.06 134.44 560.82 134.16 560.36 134.49 560.05 136.8 559.48 137.7 558.95 138.41 558.87 138.73 558.62 138.93 558.25 139.27 557.77 140.68 556.75 140.99 556.32 140.65 554.98 141.04 553.88 141.78 553 143.06 551.86 143.41 551.4 143.64 550.83 144.09 547.63 144.34 547.08 144.56 547.04 145.63 546.63 145.79 546.53 146.29 546.36 146.46 545.95 146.44 545.24 146.52 544.57 146.67 544.2 147.09 543.76 147.45 543.5 147.77 543.35 149.32 542.85 150.54 542.48 151.62 541.85 152.52 541.09 152.61 540.14 152.88 539.61 153.74 539.7 154.17 540.09 155.41 540.02 156.73 539.77 157.65 539.39 157.94 539.5 158.23 539.69 158.43 540.01 158.43 540.48 157.9 540.24 157.34 540.17 156.81 540.31 156.35 540.71 156.65 540.92 156.88 540.99 157.11 540.92 157.41 540.71 157.63 540.94 157.78 541.05 157.87 541.18 157.91 541.5 159.08 540.7 159.8 540.34 160.67 540.18 161.53 540.33 162.23 540.53 162.27 540.53 163.21 540.79 163.74 540.41 165.19 539.14 166.1 537.37 166.84 534.92 166.87 532.64 166.46 531.58 165.99 531.02 165.72 530.78 165.29 530.01 164.69 530.01 164.17 529.62 163.77 529.39 163 529.42 162.5 529.63 162.06 529.95 161.97 529.57 164.1 527.41 164.45 526.38 165.1 524.25 165.07 523.36 165.31 522.53 165.8 521.47 166.22 520.17 166.37 519.39 166.36 518.59 166.88 516.38 166.97 515.14 166.41 513.81 166.38 513.04 166.59 512.75 166.73 512.62 167.03 512.56 167.29 512.41 167.43 512.2 167.83 511.34 168.1 510.94 168.22 510.71 168.35 510.28 168.4 509.84 168.4 509.45 168.43 509.08 168.61 508.69 167.39 509.37 165.82 510.42 164.31 512.03 162.74 512.92 162.03 512.8 162.59 511.51 163.68 510.88 164.21 510.52 164.54 510.13 164.8 509.75 165.01 509.27 165.35 508.81 165.45 508.38 165.3 507.9 165.4 507.58 166.27 507.61 166.07 507.29 166 506.95 166.07 506.62 166.27 506.29 166.59 507.08 167.37 506.9 168.74 506.03 169.18 505.66 169.16 504.79 168.95 503.75 168.87 502.86 168.61 502.86 168.29 503.06 168.09 502.8 167.83 501.78 167.57 501.78 167.46 502.15 167.34 502.38 167.14 502.52 166.79 502.59 166.94 502.26 167.14 501.55 167.29 501.25 167.52 501.02 167.99 500.81 168.24 500.6 169.32 499.37 169.68 499.13 169.48 499.78 169.07 500.58 168.94 501.25 169.53 501.54 170.04 501.19 170.27 500.36 170.3 499.39 170.19 498.6 170.04 498.44 169.77 498.37 169.39 498.34 169.41 498.11 169.62 497.62 169.68 497.52 169.61 497.08 169.61 496.66 169.47 496.35 169 496.22 168.85 496.06 169.03 495.69 169.41 495.33 169.79 495.17 170.24 495.11 170.71 494.94 171.16 494.68 171.5 494.35 171.5 494.15 171.21 493.76 171.24 493.58 171.36 493.5 171.65 493.39 171.76 493.31 172.08 493.15 172.41 493.18 172.67 493.11 172.77 492.64 172.91 492.63 173.21 492.28 173.45 491.88 173.44 491.68 173.68 491.61 174.62 491.18 177.12 490.54 177.5 490.24 177.87 489.61 178.17 489.25 178.4 489.19 178.58 489.3 178.8 489.37 178.98 489.47 179.06 489.71 178.98 489.86 178.84 489.97 178.81 490.12 179.06 490.38 179.06 490.55 179.06 490.65 179.32 490.65 179.54 490.34 180.36 489.56 180.2 489.25 180.11 488.97 180.07 488.66 180.07 488.26 179.48 488.78 179.32 489.06 178.54 488.62 178.33 487.89 178.64 487.21 180 486.75 180.61 486 181.02 485.83 181.45 485.8 181.88 485.69 182.29 485.53 184.71 483.92 186.16 483.56 186.93 483.11 187.45 482.51 187.4 481.89 187.57 481.5 187.76 480.62 187.92 480.27 188.28 480.04 188.8 479.81 189.5 479.77 190.23 479.48 190.72 478.91 191.65 478.17 191.73 477.51 192.8 477.51 194.09 477.38 194.71 476.87 194.64 476.16 194.6 475.48 194.52 475.27 194.74 475.02 195.7 475.48 196.56 475.77 198.6 476.46 202.32 478 205.1 478.94 206.98 479.44 208.95 479.68 211.53 479.94 214.05 479.78 215.55 479.61 215 480.02 213.12 480.38 209.45 480.27 209 480.21 208.59 480.1 208.18 480.07 207.75 480.27 207.64 480.61 207.68 481.06 207.66 481.45 207.34 481.62 207.19 482.12 207.61 483.24 208.55 485.06 207.96 484.75 207.41 484.15 206.9 483.8 206.47 484.25 206.2 483.88 205.3 483.88 204.76 483.62 204.46 483.75 204.16 484.4 203.94 485.19 203.85 485.71 203.81 486.89 203.87 487.46 204.11 487.73 204.63 487.54 204.86 486.93 205.03 486.25 205.41 485.83 205.41 486.24 205.54 486.51 205.8 486.66 206.19 486.68 206.12 487.06 206.19 488.5 206.77 488.77 207.39 488.74 207.87 488.4 208.03 487.73 207.6 487.97 207.26 487.88 207.04 487.51 206.97 486.92 207.12 486.41 207.42 486.06 207.62 485.74 207.49 485.31 208.25 485.44 208.73 485.96 208.98 486.73 209.16 488.6 209.51 489.05 210.08 489.13 211.58 489.05 211.85 488.99 212.21 488.79 212.94 488.09 213.1 487.98 213.19 487.62 214.29 485.59 214.33 485.32 214.29 484.25 214.72 483.4 214.79 483.08 214.91 482.88 215.45 482.25 215.57 482.02 215.85 480.54 216.22 479.68 218.59 476.21 218.71 475.9 218.6 475.44 218.07 474.79 217.91 474.42 217.92 474 218.14 473.34 218.19 472.96 218.12 472.58 217.78 471.88 217.67 471.51 217.74 471.35 218.11 471.02 218.19 470.83 218.15 470.61 218.05 470.5 217.95 470.43 217.91 470.33 218 469.92 218.21 469.54 218.71 468.84 218.91 468.61 219.09 468.5 219.21 468.33 219.26 467.92 219.75 466.98 220.35 466.93 220.84 467.05 221.11 466.87 221.05 465.94 221.34 465.94 221.36 466.19 221.42 466.36 221.6 466.71 222 466.17 222.09 465.94 222.22 466.02 222.27 466.02 222.3 466.04 222.38 466.18 222.61 466.18 222.61 465.39 222.99 465.7 223.28 466.3 223.7 466.45 224.07 466.26 224.24 465.86 224.4 465.63 224.72 465.94 225 465.94 225.07 465.66 225.22 465.51 225.45 465.45 225.75 465.39 226.72 465.49 227.45 465.78 228.09 466.24 228.76 466.85 229.04 466.96 230.78 467.34 232.02 468.06 233.52 468.54 238.12 468.87 242.41 468.53 243.43 468.53 249.64 468.52 253.84 467.87 254.21 467.65 254.45 467.32 255.61 466.44 256.59 465.89 256.78 465.74 257.07 465.39 257.52 464.47 257.71 464.33 258.15 464.19 258.48 463.87 259.02 463.12 259.44 462.76 260.71 462.18 262.88 460.1 267.48 457.66 274.12 452.21 274.82 451.79 276.21 451.3 278.52 450.8 279.12 450.52 280.27 449.69 281.06 449.92 281.86 449.5 282.7 448.92 283.56 448.62 285.83 448.54 286.54 448.36 287.14 448.01 288.12 447.19 289.35 446.88 291 445.68 293.03 444.86 293.5 444.25 294.2 443.55 294.36 443.14 294.43 442.8 294.9 441.4 296.27 439.26 296.65 437.96 297.5 436.82 297.76 436.35 297.82 435.59 297.67 433.4 297.5 432.6 297.29 432.31 296.93 431.99 296.6 431.79 296.46 431.81 296.55 431.3 296.88 430.96 297.76 430.45 298.95 430.88 302.86 430.19 304.2 430.49 304.05 431.21 302.47 432.87 303.04 433.17 303.62 434.16 304.29 434.46 305.42 433.94 305.61 433.81 305.71 433.31 305.96 432.87 306.3 432.53 306.65 432.34 307.14 432.31 307.66 432.37 308.07 432.31 308.23 431.94 308.08 431.54 307.81 431.19 307.67 430.84 307.95 430.45 307.56 430.15 307.36 429.86 307.13 429.61 306.65 429.41 306.15 429.37 305.68 429.44 305.3 429.64 305.07 429.95 304.83 429.95 304.55 429.41 306.29 428.21 307.69 426.99 307.78 426.81 307.94 426.3 308.09 426.19 308.77 426.23 308.97 426.19 309.55 425.77 309.86 425.7 310.31 425.93 309.64 426.27 309.13 426.72 309.01 427.25 309.51 427.82 309.79 427.97 309.98 427.99 310.55 427.82 310.59 427.71 310.54 427.52 310.53 427.34 310.68 427.26 311.21 427.29 311.35 427.26 312.05 426.88 312.52 426.55 312.79 426.1 312.91 425.4 312.81 425.34 312.61 425.31 312.49 425.2 312.63 424.87 312.88 424.62 313.23 424.44 313.6 424.34 313.95 424.31 313.71 425 313.94 425.35 314.3 425.65 314.47 426.19 314.71 426.19 314.81 426.05 314.96 425.78 315.02 425.51 314.85 425.4 314.59 425.3 314.78 425.1 315.11 424.91 315.25 424.87 315.7 424.62 316.22 424.45 316.72 424.22 317.09 423.77 316.62 423.83 316.22 424.01 315.9 424.21 315.65 424.31 315.26 424.18 315.33 423.88 315.66 423.53 316.03 423.27 315.6 423.27 315.22 423.35 314.92 423.51 314.71 423.77 314.77 423.15 314.83 422.93 314.99 422.71 314.49 423.04 313.49 423.93 313.15 424.31 312.91 424.06 313.3 423.36 313.87 422.75 314.57 422.33 315.39 422.18 316.13 422.3 316.13 422.3"/><g class="cls-9"><text class="cls-10" transform="translate(479.27 727.2)"><tspan class="cls-11">W</tspan><tspan x="8.54" y="0">he</tspan><tspan class="cls-12" x="19.27" y="0">r</tspan><tspan x="22.49" y="0">e: </tspan><tspan class="cls-13" x="31.84" y="0">C</tspan><tspan x="37.62" y="0">olombia</tspan><tspan class="cls-11" x="72.69" y="0">W</tspan><tspan x="81.23" y="0">h</tspan><tspan class="cls-14" x="86.87" y="0">a</tspan><tspan x="91.73" y="0">t: 10 </tspan><tspan class="cls-12" x="111.92" y="0">w</tspan><tspan x="119.3" y="0">eek d</tspan><tspan class="cls-14" x="142.12" y="0">a</tspan><tspan x="146.98" y="0">ta scien</tspan><tspan class="cls-15" x="179.07" y="0">c</tspan><tspan x="183.56" y="0">e boo</tspan><tspan class="cls-15" x="207.73" y="0">t</tspan><tspan x="211.03" y="0">camp</tspan><tspan class="cls-11" x="234.73" y="0">W</tspan><tspan x="243.28" y="0">hen: </tspan><tspan class="cls-16" x="263.9" y="0">O</tspan><tspan class="cls-17" x="270.94" y="0">c</tspan><tspan class="cls-15" x="275.62" y="0">t</tspan><tspan x="278.92" y="0">ober - </tspan><tspan class="cls-18" x="306.11" y="0">D</tspan><tspan x="312.92" y="0">e</tspan><tspan class="cls-15" x="318.01" y="0">c</tspan><tspan x="322.5" y="0">ember 2019</tspan></text></g><path class="cls-7" d="M156.92,490.82l-16,.12-.56-69-32.78.25L61.18,490.76l.18,22.41,54.31-.42.18,21.93,25.61-.19-.18-21.94,15.82-.12Zm-69.15.53,27.07-41.85h.48l.34,41.64Z"/><path class="cls-7" d="M230.57,421.27l-47.52,112.9,30.33-.24,8.3-22.16,44.69-.34,9.15,22,31-.23L257.65,421.06Zm-1.07,68.67,14.36-38.73,14.67,38.51Z"/><polygon class="cls-7" points="353.94 509.17 353.22 420.32 325.17 420.54 326.08 533.07 398.82 532.51 398.62 508.82 353.94 509.17"/><polygon class="cls-7" points="439.72 508.51 439 419.67 410.95 419.88 411.86 532.4 484.6 531.85 484.41 508.17 439.72 508.51"/></g></g></svg>